<svg width="32" height="26" viewBox="0 0 32 26" fill="none" xmlns="http://www.w3.org/2000/svg">
<path d="M4.78912 25.3618V20.0851C3.38199 19.0297 0.462189 15.7582 0.0400499 11.1146C-0.487625 5.3102 4.26145 -0.494222 10.5935 0.0334526C16.9256 0.561127 19.564 5.83787 19.564 9.00392C19.564 12.17 22.73 12.6976 22.73 14.2807C22.73 15.5471 20.9711 15.5119 20.0917 15.336C20.2676 15.6878 20.5138 17.0246 20.0917 19.5574C19.6695 22.0902 16.398 22.0199 14.8149 21.6681V25.3618H4.78912Z" fill="white"/>
<path d="M26.3838 10.9608C26.3838 10.9608 27.6428 12.2198 27.6428 14.3181C27.6428 16.4164 26.3838 17.6754 26.3838 17.6754" stroke="white" stroke-width="2" stroke-linecap="round" stroke-linejoin="round"/>
<path d="M28.9017 8.44281C28.9017 8.44281 31 10.5411 31 14.3181C31 18.095 28.9017 20.1933 28.9017 20.1933" stroke="white" stroke-width="2" stroke-linecap="round" stroke-linejoin="round"/>
</svg>
