<svg width="124" height="106" viewBox="0 0 124 106" fill="none" xmlns="http://www.w3.org/2000/svg">
<path d="M104.31 62.6266V65H114.418V51H104.31V52.9654C103.721 52.9594 103.137 53.08 102.591 53.3201C102.045 53.5603 101.549 53.9151 101.131 54.3643C100.712 54.8134 100.38 55.348 100.154 55.937C99.9272 56.526 99.8105 57.1578 99.8105 57.796C99.8105 58.4341 99.9272 59.066 100.154 59.655C100.38 60.244 100.712 60.7785 101.131 61.2277C101.549 61.6768 102.045 62.0317 102.591 62.2718C103.137 62.5119 103.721 62.6325 104.31 62.6266ZM101.691 57.7937C101.691 57.4213 101.759 57.0526 101.891 56.7087C102.023 56.3648 102.216 56.0523 102.459 55.7892C102.702 55.5261 102.99 55.3174 103.308 55.1752C103.626 55.0329 103.966 54.9598 104.31 54.9601V60.6298C103.966 60.6299 103.625 60.5566 103.308 60.4142C102.99 60.2717 102.701 60.0628 102.458 59.7995C102.215 59.5361 102.022 59.2234 101.891 58.8793C101.759 58.5351 101.691 58.1662 101.691 57.7937Z" fill="#C1D8ED"/>
<path d="M43.3518 38.1725C43.3518 38.1725 23.4028 36.8789 23.4028 54.7765C23.4028 72.674 26.3429 97.6878 41.042 100.491C55.7411 103.295 77.4581 102.449 82.4998 101.572C88.6943 100.493 91.3945 85.7377 83.1438 84.7503C59.7288 81.9464 71.0696 40.1134 43.3518 38.1725Z" fill="#C1D8ED"/>
<path d="M50.0247 29.0415C50.0247 29.0415 53.137 27.3469 52.4419 18.6445L58.8722 17.4199C58.8722 17.4199 58.1498 25.2226 61.4025 27.6995L50.0247 29.0415Z" fill="#E98862"/>
<g opacity="0.15">
<path d="M60.0854 26.0686L54.7434 21.8719L58.9388 21.8273C59.0604 23.3021 59.4493 24.7405 60.0854 26.0686Z" fill="black"/>
</g>
<path d="M48.7939 15.2699C49.2391 17.9101 50.6421 20.4105 52.91 21.2627C55.3822 22.2705 58.057 22.6417 60.7011 22.344C67.7399 21.7513 66.3478 5.31595 63.0056 2.12237C59.6635 -1.07121 49.8557 0.951491 48.6627 6.29134C48.0457 9.05343 48.3701 12.7566 48.7939 15.2699Z" fill="#E98862"/>
<path d="M65.3277 2.68858C65.1177 2.34623 64.8233 2.06692 64.4744 1.87892C61.3484 0.133139 55.5557 -0.470692 52.7734 0.384014C49.5456 1.37594 45.4983 4.15456 46.5351 10.8926C46.5789 11.1761 46.626 11.4493 46.6747 11.7192C45.6553 11.5403 44.6076 11.6529 43.6463 12.0448C42.6851 12.4367 41.8475 13.0927 41.2251 13.9409C40.6028 14.7891 40.2198 15.7969 40.1181 16.8538C40.0164 17.9107 40.2 18.9759 40.6486 19.9328C41.0973 20.8897 41.7937 21.7014 42.6617 22.2788C43.5296 22.8563 44.5356 23.1773 45.5695 23.2067C46.6033 23.2361 47.625 22.9728 48.5228 22.4455C49.4205 21.9182 50.1597 21.1474 50.6592 20.2175C51.138 20.6423 51.6553 21.0191 52.2039 21.3429C52.589 21.5777 52.6824 21.3863 52.816 20.9474C53.2829 19.4136 53.7417 13.3476 53.3755 8.94306L60.9605 8.67359L62.2822 4.81253L63.3652 8.67359H65.9487C66.2952 6.58188 66.6514 4.21035 65.3277 2.68858Z" fill="#0F1011"/>
<path d="M58.8632 13.236C59.1853 13.236 59.4464 12.9679 59.4464 12.6371C59.4464 12.3064 59.1853 12.0383 58.8632 12.0383C58.5411 12.0383 58.28 12.3064 58.28 12.6371C58.28 12.9679 58.5411 13.236 58.8632 13.236Z" fill="#0F1011"/>
<path d="M63.464 12.8483C63.7861 12.8483 64.0472 12.5802 64.0472 12.2494C64.0472 11.9187 63.7861 11.6506 63.464 11.6506C63.142 11.6506 62.8809 11.9187 62.8809 12.2494C62.8809 12.5802 63.142 12.8483 63.464 12.8483Z" fill="#0F1011"/>
<path d="M64.4743 10.9732C64.5452 10.9708 64.6124 10.9404 64.6619 10.8883C64.7113 10.8361 64.7392 10.7663 64.7396 10.6935C64.74 10.6207 64.713 10.5506 64.6641 10.4978C64.6152 10.4451 64.5484 10.4139 64.4775 10.4107L62.9328 10.3908C62.8608 10.3919 62.7919 10.4213 62.7403 10.473C62.6888 10.5247 62.6584 10.5946 62.6555 10.6686C62.6551 10.7055 62.6617 10.7422 62.675 10.7765C62.6884 10.8108 62.7082 10.8421 62.7333 10.8685C62.7584 10.895 62.7883 10.9161 62.8214 10.9306C62.8545 10.9452 62.89 10.9529 62.926 10.9533L64.4711 10.9732H64.4743Z" fill="#0F1011"/>
<path d="M57.6046 11.5518C57.6262 11.5518 57.6476 11.5492 57.6686 11.5439L59.1919 11.1678C59.2612 11.1491 59.3205 11.1032 59.3573 11.04C59.394 10.9769 59.4052 10.9015 59.3884 10.83C59.3717 10.7585 59.3284 10.6965 59.2678 10.6574C59.2071 10.6183 59.134 10.6051 59.064 10.6206L57.5406 10.9967C57.4754 11.0129 57.4183 11.053 57.3799 11.1095C57.3416 11.1661 57.3248 11.235 57.3327 11.3034C57.3406 11.3718 57.3726 11.4349 57.4227 11.4806C57.4728 11.5264 57.5375 11.5517 57.6046 11.5518Z" fill="#0F1011"/>
<path d="M55.8293 14.1023C55.8606 14.4372 55.8268 14.7751 55.7298 15.0965C55.6328 15.4178 55.4745 15.7162 55.2643 15.9742C55.054 16.2322 54.7959 16.4447 54.505 16.5994C54.214 16.7541 53.896 16.8479 53.5695 16.8752C53.243 16.9026 52.9144 16.8631 52.6029 16.7589C52.2913 16.6548 52.0031 16.4881 51.7548 16.2685C51.5066 16.049 51.3033 15.7809 51.1568 15.48C51.0103 15.1791 50.9235 14.8513 50.9015 14.5156C50.8693 14.1822 50.9029 13.8456 51.0001 13.5259C51.0972 13.2061 51.2561 12.9096 51.4671 12.6542C51.6782 12.3988 51.9371 12.1896 52.2285 12.039C52.5199 11.8884 52.8378 11.7996 53.1634 11.7779C54.9254 11.7204 55.7178 12.7049 55.8293 14.1023Z" fill="#E98862"/>
<g opacity="0.15">
<path d="M61.4518 15.9589C61.4036 15.9589 61.357 15.9411 61.3205 15.9089C61.2839 15.8766 61.2599 15.8319 61.2527 15.7829C61.2456 15.734 61.2557 15.684 61.2814 15.6421C61.3071 15.6002 61.3466 15.5692 61.3927 15.5546L62.5788 15.1806L61.7493 13.2831C61.7375 13.2583 61.7307 13.2312 61.7293 13.2035C61.7279 13.1759 61.7319 13.1482 61.7411 13.1222C61.7503 13.0962 61.7645 13.0723 61.7828 13.0521C61.8012 13.0318 61.8233 13.0155 61.8479 13.0042C61.8725 12.9928 61.899 12.9867 61.926 12.9861C61.9529 12.9855 61.9797 12.9905 62.0048 13.0008C62.0298 13.011 62.0526 13.0263 62.0718 13.0458C62.0909 13.0653 62.1061 13.0885 62.1163 13.1141L63.0396 15.2248C63.0513 15.2516 63.0573 15.2806 63.0573 15.3099C63.0572 15.3392 63.0511 15.3682 63.0393 15.3949C63.0275 15.4216 63.0103 15.4454 62.9888 15.4648C62.9674 15.4841 62.9421 15.4985 62.9148 15.5071L61.511 15.9498C61.4918 15.9558 61.4719 15.9589 61.4518 15.9589Z" fill="black"/>
</g>
<path d="M59.1331 17.3533C59.1331 17.3533 61.2855 17.5864 62.7955 17.045C62.7955 17.045 62.7839 18.5011 61.0802 18.6445C59.3766 18.7879 59.1331 17.3533 59.1331 17.3533Z" fill="white"/>
<path d="M115.074 99.6563L109.144 79.6097C108.729 77.9715 107.797 76.5209 106.493 75.4853C105.189 74.4497 103.588 73.8876 101.94 73.8871H61.2706V73.914H38.4871V81.0839C38.4871 85.2588 40.1021 89.2627 42.9768 92.2148C45.8515 95.1669 49.7505 96.8253 53.816 96.8253H64.9279V96.8704H84.327L83.4009 102.068L98.2271 103.5L98.9766 100.228L100.662 103.5L115.074 99.6563Z" fill="#262626"/>
<path d="M96.7161 38.8743C96.7161 38.8743 96.7764 33.9102 100.232 34.1685C102.411 34.3313 112.769 33.8378 112.923 34.8066C113.305 37.2037 103.831 37.7898 102.971 40.0233L96.7161 38.8743Z" fill="#E98862"/>
<path d="M99.0068 34.3276C99.0068 34.3276 103.816 32.7182 104.998 33.005C106.044 33.2605 103.863 35.0095 103.863 35.0095L99.0068 34.3276Z" fill="#E98862"/>
<path d="M81.9856 63.9811C81.205 63.9806 80.4386 63.7664 79.7653 63.3607C79.092 62.955 78.5362 62.3724 78.1549 61.6728L63.6196 34.9546L71.2799 30.5608L82.8055 51.7474L96.5451 35.8738L103.94 40.144L85.2654 62.4713C84.8535 62.9465 84.3483 63.3268 83.783 63.587C83.2177 63.8472 82.6051 63.9815 81.9856 63.9811Z" fill="#367CFF"/>
<path d="M86.5891 58.2325C87.7885 58.2325 91.7983 57.5824 92.0849 58.6285C92.2563 59.2554 89.2676 59.9961 89.2676 59.9961" fill="#E98862"/>
<path d="M85.9594 63.1706C85.9594 63.1706 94.0548 66.5862 98.7053 62.6904C98.8236 62.591 98.91 62.4573 98.9532 62.3068C98.9964 62.1562 98.9943 61.9958 98.9473 61.8465C98.9004 61.6971 98.8106 61.5658 98.6898 61.4696C98.569 61.3735 98.4228 61.317 98.2703 61.3075C95.1342 61.1182 88.6914 60.4689 89.4461 58.3458H84.3894" fill="#E98862"/>
<path d="M86.7813 55.8288H71.3566C71.3513 55.3117 71.3493 54.7835 71.3566 54.2301C71.4854 42.7693 77.3534 27.163 64.0034 26.572C63.7498 26.5637 63.3433 26.5513 62.8201 26.5431C62.7155 28.8162 49.0033 28.808 48.7135 26.4893C44.8417 26.4935 41.6622 27.7169 39.8269 29.6015C33.488 36.111 41.2677 47.204 41.2677 55.8833C41.2677 64.5626 37.4443 68.4559 37.726 72.9113C38.1687 79.9126 71.3043 78.2594 72.9906 74.2793C74.1216 71.6127 73.0256 69.609 72.1631 64.8408H86.7825L86.7813 55.8288Z" fill="#367CFF"/>
<path d="M62.819 26.5431C62.7144 28.8162 61.507 32.1598 57.7962 32.4078C52.8418 32.7467 49.0022 28.808 48.7124 26.4893H48.7285C53.5984 26.4893 59.9736 26.4976 62.819 26.5431Z" fill="#E98862"/>
<path d="M14.4804 69H10.5852V102H14.4804V69Z" fill="#DEE8F5"/>
<path d="M112.834 69H108.939V106H112.834V69Z" fill="#DEE8F5"/>
<path d="M123.546 65H0.847168V70H123.546V65Z" fill="#DEE8F5"/>
</svg>
