<svg width="97" height="101" viewBox="0 0 97 101" fill="none" xmlns="http://www.w3.org/2000/svg">
<path d="M63.3103 100.817L48.3275 100.757C48.9503 97.0449 49.0564 92.7992 49.2237 88.9575C49.2701 88.0052 49.5756 87.0546 50.1384 86.1115C52.5486 82.0414 54.121 77.9948 57.3662 73.948L57.4743 73.9555L57.7906 73.4478L88.5972 73L90.2008 77.7348C90.2008 77.7348 94.2137 94.1158 96.0437 100.702L81.1164 101C76.0807 95 75.5938 93.5 71.7031 87C68.7628 90.3028 66.7628 91.21 64.206 94.4845C63.6946 98.5835 63.9082 97 63.3103 100.817Z" fill="#262626"/>
<path d="M8.83823 53.2012C8.83823 53.2012 5.50719 51.539 3.00516 52.1765C1.87141 52.4657 1.49729 52.8508 1.59102 53.2225C1.03957 53.3754 0.668685 53.615 0.65286 53.9821C0.65286 53.9821 0.382596 58.6908 1.22094 59.4171C2.48737 60.5155 8.76031 59.6554 8.76031 59.6554L8.83823 53.2012Z" fill="#E98862"/>
<path d="M23.217 60.9005H47.3519C48.0666 60.9005 48.7697 60.716 49.3967 60.3639C50.0237 60.0117 50.5544 59.5033 50.9398 58.8853L66.1898 34.4386L59.0144 29.717L45.0232 52.1499H23.217V60.9005Z" fill="#367CFF"/>
<path d="M55.8063 75.8132C57.5065 79.826 90.9143 81.4928 91.3607 74.434C91.6447 69.942 87.7898 66.0209 87.7898 57.2661C87.7898 48.5113 95.6335 37.3313 89.2425 30.7683C87.3881 28.864 84.1865 27.6348 80.2829 27.6306C79.9908 29.9683 66.1699 29.9766 66.0644 27.6848C65.5369 27.6931 65.1271 27.7015 64.8714 27.714C51.4077 28.3098 57.3239 44.0443 57.4538 55.6035C57.6121 69.1294 54.0534 71.6784 55.8063 75.8132Z" fill="#367CFF"/>
<path d="M66.0645 27.6848C66.17 29.9766 67.3832 33.3477 71.1286 33.6019C76.1196 33.9394 79.9908 29.9683 80.2829 27.6306H80.2707C75.3568 27.6306 68.9293 27.639 66.0645 27.6848Z" fill="#E98862"/>
<path d="M51.4706 40.7812H10.4995V75.7699H51.4706V40.7812Z" fill="#0CBC8B"/>
<path opacity="0.26" d="M51.4706 40.7812H10.4995V75.7699H51.4706V40.7812Z" fill="#0F1011"/>
<path d="M38.4855 40.7812H1.57227V75.7699H38.4855V40.7812Z" fill="#0CBC8B"/>
<path d="M51.6091 57.6719H51.5997C51.538 57.6603 51.4747 57.6515 51.411 57.6444C50.4104 57.5007 45.8519 56.8831 44.7372 57.3698C44.3622 57.5336 44.4296 57.8149 44.6775 58.1149C42.6308 58.3136 40.8673 58.8291 40.8149 60.403C40.7232 63.129 47.2262 63.8553 49.3769 63.6282C51.3084 63.4232 54.2482 58.1641 51.6091 57.6719Z" fill="#E98862"/>
<path d="M49.8134 65.3029L74.923 64.5166C75.7068 64.4921 76.4701 64.2541 77.1348 63.8269C77.7995 63.3997 78.3416 62.7988 78.7057 62.0856L91.103 37.8114L83.2674 33.5923L72.0704 55.5168L49.5436 56.2223L49.8134 65.3029Z" fill="#367CFF"/>
<path d="M76.4444 21.766C76.4404 21.6577 76.4404 21.5452 76.4404 21.4327C76.4363 20.6743 76.4688 19.8492 76.5418 18.9491L75.7627 18.7991L74.9755 18.6491L70.0575 17.7157C70.1698 19.1953 70.148 20.6823 69.9925 22.1577C69.9723 22.3577 69.9439 22.5619 69.9154 22.7661C69.8952 22.9119 69.8708 23.0536 69.8464 23.1995C69.8424 23.237 69.8343 23.2786 69.8262 23.3203C69.7694 23.6453 69.7044 23.9662 69.6233 24.2829C69.6107 24.3477 69.5945 24.4117 69.5746 24.4745C69.5738 24.4861 69.571 24.4973 69.5665 24.5079C69.534 24.6454 69.4934 24.7871 69.4488 24.9204C69.4042 25.0746 69.3555 25.2246 69.2987 25.3746C69.2784 25.4371 69.254 25.4996 69.2297 25.5621C69.2248 25.5795 69.218 25.5963 69.2094 25.6121C69.181 25.6913 69.1485 25.7663 69.112 25.8455C69.0969 25.8895 69.0792 25.9327 69.0592 25.9747C68.9903 26.133 68.9172 26.283 68.8401 26.4288C68.839 26.4288 68.838 26.4293 68.8373 26.4301C68.8365 26.4309 68.8361 26.4319 68.8361 26.433C68.5302 27.0484 68.1 27.5897 67.5741 28.0206H77.7697C77.1383 26.9039 76.489 24.9788 76.4444 21.766Z" fill="#E98862"/>
<path d="M68.8352 26.4347L74.2207 22.204L69.9909 22.159C69.8683 23.6457 69.4764 25.0958 68.8352 26.4347Z" fill="#C98481"/>
<path d="M80.2194 15.5493C79.7706 18.2116 78.3561 20.7322 76.0691 21.5914C73.5767 22.6074 70.88 22.9815 68.2144 22.6811C61.1174 22.0836 62.5214 5.51321 65.8905 2.29381C69.2597 -0.925586 79.1486 1.11331 80.3517 6.49703C80.9754 9.28014 80.6467 13.0137 80.2194 15.5493Z" fill="#E98862"/>
<path d="M70.0671 13.4971C70.3918 13.4971 70.6551 13.2268 70.6551 12.8933C70.6551 12.5598 70.3918 12.2895 70.0671 12.2895C69.7424 12.2895 69.4791 12.5598 69.4791 12.8933C69.4791 13.2268 69.7424 13.4971 70.0671 13.4971Z" fill="#0F1011"/>
<path d="M65.4286 13.1063C65.7533 13.1063 66.0165 12.8359 66.0165 12.5025C66.0165 12.169 65.7533 11.8987 65.4286 11.8987C65.1038 11.8987 64.8406 12.169 64.8406 12.5025C64.8406 12.8359 65.1038 13.1063 65.4286 13.1063Z" fill="#0F1011"/>
<path d="M64.4097 11.2157H64.4134L65.9711 11.1961C66.0444 11.1956 66.1145 11.1652 66.166 11.1117C66.2175 11.0581 66.2461 10.9857 66.2457 10.9105C66.2452 10.8352 66.2156 10.7632 66.1634 10.7104C66.1113 10.6575 66.0408 10.6281 65.9675 10.6286H65.9638L64.4065 10.6486C64.3351 10.6518 64.2676 10.6833 64.2184 10.7365C64.1691 10.7896 64.1418 10.8603 64.1422 10.9337C64.1426 11.0071 64.1708 11.0775 64.2206 11.1301C64.2705 11.1827 64.3383 11.2134 64.4097 11.2157Z" fill="#0F1011"/>
<path d="M71.3368 11.799C71.4044 11.7989 71.4695 11.7733 71.52 11.7271C71.5704 11.6809 71.6027 11.6173 71.6106 11.5484C71.6184 11.4795 71.6015 11.41 71.5629 11.3531C71.5242 11.2961 71.4666 11.2557 71.4009 11.2394L69.865 10.8598C69.794 10.8412 69.7187 10.8523 69.6556 10.8907C69.5926 10.9291 69.547 10.9917 69.5289 11.0646C69.5107 11.1376 69.5215 11.2149 69.5589 11.2796C69.5963 11.3444 69.6573 11.3912 69.7283 11.4098H69.7356L71.2715 11.7895C71.2928 11.7953 71.3147 11.7986 71.3368 11.799Z" fill="#0F1011"/>
<path d="M76.1608 21.2722C76.2955 21.7148 76.3896 21.9077 76.778 21.671C78.3021 20.741 81.1084 19.8709 82.2771 12.2895C83.3244 5.49737 77.9438 3.0997 74.689 2.09963C71.8839 1.2379 72.5514 1.50083 69.4792 3.40264C66.8311 5.0415 63.7821 6.85455 63.7821 6.85455C64.9524 6.90997 65.1881 7.94296 67.949 7.94296C70.0834 7.94296 71.4712 6.96372 73.4697 7.04998C75.2989 7.12874 75.6746 8.27382 75.6097 9.00846C75.2165 13.4592 75.6844 19.7071 76.1608 21.2722Z" fill="#0F1011"/>
<path d="M73.1258 14.3705C73.0817 15.0416 73.2966 15.7035 73.7241 16.2132C74.1515 16.7228 74.7571 17.0392 75.4099 17.094C76.0627 17.1487 76.7103 16.9374 77.2126 16.5057C77.7149 16.0741 78.0316 15.4567 78.0941 14.7872C78.126 14.4583 78.0944 14.1261 78.0012 13.8097C77.908 13.4934 77.7551 13.1989 77.5511 12.9433C77.3471 12.6876 77.096 12.4757 76.8122 12.3197C76.5285 12.1637 76.2176 12.0666 75.8972 12.0341C75.8697 12.0311 75.8417 12.0286 75.8137 12.027C74.0363 11.9691 73.2382 12.9616 73.1258 14.3705Z" fill="#E98862"/>
<g opacity="0.15">
<path d="M67.4572 16.2419C67.5058 16.2419 67.5528 16.224 67.5896 16.1914C67.6265 16.1589 67.6507 16.1138 67.658 16.0645C67.6652 16.0151 67.6549 15.9647 67.629 15.9225C67.6031 15.8803 67.5633 15.849 67.5168 15.8343L66.321 15.4572L67.1573 13.5446C67.18 13.4945 67.1824 13.4371 67.164 13.3852C67.1455 13.3333 67.1077 13.291 67.0589 13.2677C67.0101 13.2444 66.9543 13.2419 66.9037 13.2609C66.8531 13.2798 66.812 13.3186 66.7893 13.3687V13.3737L65.8588 15.5022C65.8479 15.5272 65.8419 15.5541 65.8411 15.5815C65.8404 15.6089 65.8449 15.6361 65.8544 15.6617C65.8639 15.6873 65.8782 15.7107 65.8965 15.7306C65.9148 15.7505 65.9368 15.7665 65.9611 15.7777C65.9689 15.781 65.9767 15.7839 65.9842 15.7864L67.3996 16.2327C67.4182 16.2386 67.4376 16.2417 67.4572 16.2419Z" fill="black"/>
</g>
<path d="M74.2207 10.8465L75.6101 11.3257C75.6101 11.3257 75.4291 16.3861 74.9153 18.96C74.4016 21.5339 74.0019 24.8888 72.4072 25.2575C70.2903 25.7467 67.2632 25.7676 65.4278 25.0942C63.3584 24.335 63.4087 16.4573 63.4087 16.4573C63.4087 16.4573 70.0635 17.1978 71.9073 16.2906C73.7512 15.3835 74.2207 10.8465 74.2207 10.8465Z" fill="#0F1011"/>
<path d="M69.7952 17.6482C69.7952 17.6482 67.6247 17.8832 66.1027 17.3374C66.1027 17.3374 66.1148 18.8054 67.8321 18.95C69.5493 19.0946 69.7952 17.6482 69.7952 17.6482Z" fill="#F8FCFF"/>
<path d="M75.8137 12.0286C75.8137 12.0286 79.9421 11.5419 82.253 12.5024C82.253 12.5024 84.4418 1.13537 73.8643 0.0848757C63.2869 -0.965616 64.0015 8.08212 64.0015 8.08212L72.3378 7.57041L75.8137 12.0286Z" fill="#262626"/>
<path d="M75.8137 12.0286C75.8137 12.0286 72.2136 9.18927 69.212 9.18927H63.1209C63.1209 9.18927 58.1895 5.88112 58.2073 5.06397C58.2442 3.36219 66.9949 3.51511 68.8363 4.24892C70.6777 4.98272 75.8137 12.0286 75.8137 12.0286Z" fill="#262626"/>
<path opacity="0.21" d="M75.8137 12.0286C75.8137 12.0286 72.2136 9.18927 69.212 9.18927H63.1209C63.1209 9.18927 58.1895 5.88112 58.2073 5.06397C58.2442 3.36219 66.9949 3.51511 68.8363 4.24892C70.6777 4.98272 75.8137 12.0286 75.8137 12.0286Z" fill="black"/>
<path d="M1.22302 59.4187C1.33703 59.5115 1.46432 59.5858 1.60039 59.6387C2.32836 59.7929 4.1629 59.342 4.45709 58.8195C4.93591 57.969 4.63887 54.8963 4.21646 53.7812C3.82001 52.7395 1.84549 53.1757 1.5862 53.2249C1.57824 53.2281 1.56994 53.2304 1.56146 53.2316C1.02299 53.3833 0.668745 53.6204 0.653731 53.9841C0.653731 53.9841 0.381841 58.6886 1.22302 59.4187Z" fill="#E98862"/>
</svg>
