<svg width="223" height="216" viewBox="0 0 223 216" fill="none" xmlns="http://www.w3.org/2000/svg">
<path d="M29.4814 170.26V178.06H31.8414V170.26H29.4814ZM27.0214 180.12V168.18H34.2814V180.12H27.0214ZM39.8014 166.28H42.3014V184.7H39.8014V175.44H38.2614V183.88H35.8014V166.58H38.2614V173.32H39.8014V166.28ZM55.8798 174.66L54.6198 176.7C52.5998 176.1 51.1998 174.88 50.3998 173.36C49.5798 175.18 48.1198 176.64 45.9598 177.34L44.6398 175.28C47.6198 174.28 48.9398 171.94 48.9798 169.64H45.3198V167.52H55.2798V169.64H51.6798C51.7198 171.74 52.9798 173.8 55.8798 174.66ZM53.3798 182.7C55.7198 182.7 56.9798 182.2 56.9798 181.16C56.9798 180.1 55.7198 179.6 53.3798 179.6C51.0198 179.6 49.7598 180.1 49.7598 181.16C49.7598 182.2 51.0198 182.7 53.3798 182.7ZM53.3798 177.56C57.1998 177.56 59.5998 178.9 59.5998 181.16C59.5998 183.4 57.1998 184.72 53.3798 184.72C49.5398 184.72 47.1398 183.4 47.1398 181.16C47.1398 178.9 49.5398 177.56 53.3798 177.56ZM59.3998 170.54H61.8398V172.7H59.3998V177.24H56.7598V166.3H59.3998V170.54Z" fill="#367CFF"/>
<path d="M67.4382 178.5C68.4582 178.5 69.0382 177.12 69.0382 174.28C69.0382 171.46 68.4582 170.08 67.4382 170.08C66.4382 170.08 65.8382 171.46 65.8382 174.28C65.8382 177.12 66.4382 178.5 67.4382 178.5ZM72.8582 173.08V166.6H75.3182V183.9H72.8582V175.22H71.4182C71.1782 178.82 69.6782 180.98 67.4382 180.98C64.9982 180.98 63.4582 178.46 63.4582 174.28C63.4582 170.12 64.9982 167.6 67.4382 167.6C69.6182 167.6 71.0982 169.64 71.3982 173.08H72.8582ZM76.5982 166.28H79.0982V184.7H76.5982V166.28ZM88.6167 167.72V170.38C88.6167 173.86 89.9567 177.24 92.9967 178.6L91.4367 180.7C89.4167 179.72 88.0767 177.92 87.3167 175.7C86.5167 178.06 85.1367 179.98 83.0767 181.02L81.4367 178.9C84.5567 177.46 85.9567 173.88 85.9567 170.38V167.72H88.6167ZM94.5167 166.28H97.1567V184.76H94.5167V174.18H90.9767V172.06H94.5167V166.28ZM108.287 180.12V178.04H120.827V184.74H118.187V180.12H108.287ZM112.287 174.14V169.7H108.787V174.14H112.287ZM118.187 166.3H120.827V177.2H118.187V172.8H114.867V176.2H106.187V167.64H114.867V170.68H118.187V166.3ZM138.166 178.46L135.526 178.16C136.226 174.68 136.266 172.12 136.266 169.98H125.526V167.88H138.906V169.64C138.906 171.94 138.906 174.54 138.166 178.46ZM132.366 180.38H140.506V182.5H123.846V180.38H129.726V174.04H132.366V180.38ZM148.356 166.98H157.056C157.056 171.9 153.956 174.86 148.396 175.98L147.456 173.84C151.756 173.04 153.816 171.2 154.116 169.08H148.356V166.98ZM152.536 181.3V182.46H162.596V184.54H149.916V179.34H159.456V178.28H149.896V176.2H162.056V181.3H152.536ZM162.056 169.96H164.496V172.12H162.056V175.48H159.416V166.28H162.056V169.96ZM175.414 173.34V166.7H177.874V183.9H175.414V175.46H172.534C171.494 177.56 169.814 179.38 167.214 180.9L165.714 179.04C169.394 176.84 171.014 174.18 171.334 170.58H166.734V168.48H173.954C173.954 170.22 173.794 171.84 173.354 173.34H175.414ZM179.294 166.28H181.794V184.7H179.294V166.28ZM190.653 176.92V180.44H194.713V176.92C194.073 177.04 193.393 177.1 192.673 177.1C191.953 177.1 191.293 177.04 190.653 176.92ZM192.673 169.28C190.113 169.28 188.413 170.32 188.413 172.16C188.413 173.98 190.113 175.04 192.673 175.04C195.233 175.04 196.953 173.98 196.953 172.16C196.953 170.32 195.233 169.28 192.673 169.28ZM197.333 180.44H201.033V182.58H184.353V180.44H188.033V175.94C186.633 175.08 185.793 173.76 185.813 172.16C185.813 169.14 188.713 167.2 192.673 167.2C196.653 167.2 199.553 169.14 199.553 172.16C199.553 173.76 198.713 175.08 197.333 175.94V180.44Z" fill="black"/>
<path d="M146.31 92.6266V95H156.418V81H146.31V82.9654C145.721 82.9594 145.137 83.08 144.591 83.3201C144.045 83.5603 143.549 83.9151 143.131 84.3643C142.712 84.8134 142.38 85.348 142.154 85.937C141.927 86.526 141.811 87.1578 141.811 87.796C141.811 88.4341 141.927 89.066 142.154 89.655C142.38 90.244 142.712 90.7785 143.131 91.2277C143.549 91.6768 144.045 92.0317 144.591 92.2718C145.137 92.5119 145.721 92.6325 146.31 92.6266ZM143.691 87.7937C143.691 87.4213 143.759 87.0526 143.891 86.7087C144.023 86.3648 144.216 86.0523 144.459 85.7892C144.702 85.5261 144.99 85.3174 145.308 85.1752C145.626 85.0329 145.966 84.9598 146.31 84.9601V90.6298C145.966 90.6299 145.625 90.5566 145.308 90.4142C144.99 90.2717 144.701 90.0628 144.458 89.7995C144.215 89.5361 144.022 89.2234 143.891 88.8793C143.759 88.5351 143.691 88.1662 143.691 87.7937Z" fill="#C1D8ED"/>
<path d="M85.3518 68.1725C85.3518 68.1725 65.4028 66.8789 65.4028 84.7765C65.4028 102.674 68.3429 127.688 83.042 130.491C97.7411 133.295 119.458 132.449 124.5 131.572C130.694 130.493 133.394 115.738 125.144 114.75C101.729 111.946 113.07 70.1134 85.3518 68.1725Z" fill="#C1D8ED"/>
<path d="M92.0247 59.0415C92.0247 59.0415 95.137 57.3469 94.4419 48.6445L100.872 47.4199C100.872 47.4199 100.15 55.2226 103.403 57.6995L92.0247 59.0415Z" fill="#E98862"/>
<g opacity="0.15">
<path d="M102.085 56.0686L96.7434 51.8719L100.939 51.8273C101.06 53.3021 101.449 54.7405 102.085 56.0686Z" fill="black"/>
</g>
<path d="M90.7939 45.2699C91.2391 47.9101 92.6421 50.4105 94.91 51.2627C97.3822 52.2705 100.057 52.6417 102.701 52.344C109.74 51.7513 108.348 35.3159 105.006 32.1224C101.663 28.9288 91.8557 30.9515 90.6627 36.2913C90.0457 39.0534 90.3701 42.7566 90.7939 45.2699Z" fill="#E98862"/>
<path d="M107.328 32.6886C107.118 32.3462 106.823 32.0669 106.474 31.8789C103.348 30.1331 97.5557 29.5293 94.7734 30.384C91.5456 31.3759 87.4983 34.1546 88.5351 40.8926C88.5789 41.1761 88.626 41.4493 88.6747 41.7192C87.6553 41.5403 86.6076 41.6529 85.6463 42.0448C84.6851 42.4367 83.8475 43.0927 83.2251 43.9409C82.6028 44.7891 82.2198 45.7969 82.1181 46.8538C82.0164 47.9107 82.2 48.9759 82.6486 49.9328C83.0973 50.8897 83.7937 51.7014 84.6617 52.2788C85.5296 52.8563 86.5356 53.1773 87.5695 53.2067C88.6033 53.2361 89.625 52.9728 90.5228 52.4455C91.4205 51.9182 92.1597 51.1474 92.6592 50.2175C93.138 50.6423 93.6553 51.0191 94.2039 51.3429C94.589 51.5777 94.6824 51.3863 94.816 50.9474C95.2829 49.4136 95.7417 43.3476 95.3755 38.9431L102.96 38.6736L104.282 34.8125L105.365 38.6736H107.949C108.295 36.5819 108.651 34.2104 107.328 32.6886Z" fill="#0F1011"/>
<path d="M100.863 43.236C101.185 43.236 101.446 42.9679 101.446 42.6371C101.446 42.3064 101.185 42.0383 100.863 42.0383C100.541 42.0383 100.28 42.3064 100.28 42.6371C100.28 42.9679 100.541 43.236 100.863 43.236Z" fill="#0F1011"/>
<path d="M105.464 42.8483C105.786 42.8483 106.047 42.5802 106.047 42.2494C106.047 41.9187 105.786 41.6506 105.464 41.6506C105.142 41.6506 104.881 41.9187 104.881 42.2494C104.881 42.5802 105.142 42.8483 105.464 42.8483Z" fill="#0F1011"/>
<path d="M106.474 40.9732C106.545 40.9708 106.612 40.9404 106.662 40.8883C106.711 40.8361 106.739 40.7663 106.74 40.6935C106.74 40.6207 106.713 40.5506 106.664 40.4978C106.615 40.4451 106.548 40.4139 106.478 40.4107L104.933 40.3908C104.861 40.3919 104.792 40.4213 104.74 40.473C104.689 40.5247 104.658 40.5946 104.656 40.6686C104.655 40.7055 104.662 40.7422 104.675 40.7765C104.688 40.8108 104.708 40.8421 104.733 40.8685C104.758 40.895 104.788 40.9161 104.821 40.9306C104.854 40.9452 104.89 40.9529 104.926 40.9533L106.471 40.9732H106.474Z" fill="#0F1011"/>
<path d="M99.6046 41.5518C99.6262 41.5518 99.6476 41.5492 99.6686 41.5439L101.192 41.1678C101.261 41.1491 101.321 41.1032 101.357 41.04C101.394 40.9769 101.405 40.9015 101.388 40.83C101.372 40.7585 101.328 40.6965 101.268 40.6574C101.207 40.6183 101.134 40.6051 101.064 40.6206L99.5406 40.9967C99.4754 41.0129 99.4183 41.053 99.3799 41.1095C99.3416 41.1661 99.3248 41.235 99.3327 41.3034C99.3406 41.3718 99.3726 41.4349 99.4227 41.4806C99.4728 41.5264 99.5375 41.5517 99.6046 41.5518Z" fill="#0F1011"/>
<path d="M97.8293 44.1023C97.8606 44.4372 97.8268 44.7751 97.7298 45.0965C97.6328 45.4178 97.4745 45.7162 97.2643 45.9742C97.054 46.2322 96.7959 46.4447 96.505 46.5994C96.214 46.7541 95.896 46.8479 95.5695 46.8752C95.243 46.9026 94.9144 46.8631 94.6029 46.7589C94.2913 46.6548 94.0031 46.4881 93.7548 46.2685C93.5066 46.049 93.3033 45.7809 93.1568 45.48C93.0103 45.1791 92.9235 44.8513 92.9015 44.5156C92.8693 44.1822 92.9029 43.8456 93.0001 43.5259C93.0972 43.2061 93.2561 42.9096 93.4671 42.6542C93.6782 42.3988 93.9371 42.1896 94.2285 42.039C94.5199 41.8884 94.8378 41.7996 95.1634 41.7779C96.9254 41.7204 97.7178 42.7049 97.8293 44.1023Z" fill="#E98862"/>
<g opacity="0.15">
<path d="M103.452 45.9589C103.404 45.9589 103.357 45.9411 103.32 45.9089C103.284 45.8766 103.26 45.8319 103.253 45.7829C103.246 45.734 103.256 45.684 103.281 45.6421C103.307 45.6002 103.347 45.5692 103.393 45.5546L104.579 45.1806L103.749 43.2831C103.737 43.2583 103.731 43.2312 103.729 43.2035C103.728 43.1759 103.732 43.1482 103.741 43.1222C103.75 43.0962 103.764 43.0723 103.783 43.0521C103.801 43.0318 103.823 43.0155 103.848 43.0042C103.872 42.9928 103.899 42.9867 103.926 42.9861C103.953 42.9855 103.98 42.9905 104.005 43.0008C104.03 43.011 104.053 43.0263 104.072 43.0458C104.091 43.0653 104.106 43.0885 104.116 43.1141L105.04 45.2248C105.051 45.2516 105.057 45.2806 105.057 45.3099C105.057 45.3392 105.051 45.3682 105.039 45.3949C105.027 45.4216 105.01 45.4454 104.989 45.4648C104.967 45.4841 104.942 45.4985 104.915 45.5071L103.511 45.9498C103.492 45.9558 103.472 45.9589 103.452 45.9589Z" fill="black"/>
</g>
<path d="M101.133 47.3533C101.133 47.3533 103.285 47.5864 104.796 47.045C104.796 47.045 104.784 48.5011 103.08 48.6445C101.377 48.7879 101.133 47.3533 101.133 47.3533Z" fill="white"/>
<path d="M157.074 129.656L151.144 109.61C150.729 107.971 149.797 106.521 148.493 105.485C147.189 104.45 145.588 103.888 143.94 103.887H103.271V103.914H80.4871V111.084C80.4871 115.259 82.1021 119.263 84.9768 122.215C87.8515 125.167 91.7505 126.825 95.816 126.825H106.928V126.87H126.327L125.401 132.068L140.227 133.5L140.977 130.228L142.662 133.5L157.074 129.656Z" fill="#262626"/>
<path d="M138.716 68.8743C138.716 68.8743 138.776 63.9102 142.232 64.1685C144.411 64.3313 154.769 63.8378 154.923 64.8066C155.305 67.2037 145.831 67.7898 144.971 70.0233L138.716 68.8743Z" fill="#E98862"/>
<path d="M141.007 64.3276C141.007 64.3276 145.816 62.7182 146.998 63.005C148.044 63.2605 145.863 65.0095 145.863 65.0095L141.007 64.3276Z" fill="#E98862"/>
<path d="M123.986 93.9811C123.205 93.9806 122.439 93.7664 121.765 93.3607C121.092 92.955 120.536 92.3724 120.155 91.6728L105.62 64.9546L113.28 60.5608L124.805 81.7474L138.545 65.8738L145.94 70.144L127.265 92.4713C126.854 92.9465 126.348 93.3268 125.783 93.587C125.218 93.8472 124.605 93.9815 123.986 93.9811Z" fill="#367CFF"/>
<path d="M128.589 88.2325C129.788 88.2325 133.798 87.5824 134.085 88.6285C134.256 89.2554 131.268 89.9961 131.268 89.9961" fill="#E98862"/>
<path d="M127.959 93.1706C127.959 93.1706 136.055 96.5862 140.705 92.6904C140.824 92.591 140.91 92.4573 140.953 92.3068C140.996 92.1562 140.994 91.9958 140.947 91.8465C140.9 91.6971 140.811 91.5658 140.69 91.4697C140.569 91.3735 140.423 91.317 140.27 91.3075C137.134 91.1182 130.691 90.4689 131.446 88.3458H126.389" fill="#E98862"/>
<path d="M128.781 85.8288H113.357C113.351 85.3117 113.349 84.7835 113.357 84.2301C113.485 72.7693 119.353 57.163 106.003 56.572C105.75 56.5637 105.343 56.5513 104.82 56.5431C104.715 58.8162 91.0033 58.808 90.7135 56.4893C86.8417 56.4935 83.6622 57.7169 81.8269 59.6015C75.488 66.111 83.2677 77.204 83.2677 85.8833C83.2677 94.5626 79.4443 98.4559 79.726 102.911C80.1687 109.913 113.304 108.259 114.991 104.279C116.122 101.613 115.026 99.609 114.163 94.8408H128.783L128.781 85.8288Z" fill="#367CFF"/>
<path d="M104.819 56.5431C104.714 58.8162 103.507 62.1598 99.7962 62.4078C94.8418 62.7467 91.0022 58.808 90.7124 56.4893H90.7285C95.5984 56.4893 101.974 56.4976 104.819 56.5431Z" fill="#E98862"/>
<path d="M56.4804 99H52.5852V132H56.4804V99Z" fill="#DEE8F5"/>
<path d="M154.834 99H150.939V136H154.834V99Z" fill="#DEE8F5"/>
<path d="M165.546 95H42.8472V100H165.546V95Z" fill="#DEE8F5"/>
<rect x="1.5" y="1.5" width="220" height="213" fill="#72A3FF" fill-opacity="0.3" stroke="#72A3FF" stroke-width="3"/>
</svg>
