<svg width="223" height="216" viewBox="0 0 223 216" fill="none" xmlns="http://www.w3.org/2000/svg">
<path d="M33.5613 169.92V175.14H37.3213V169.92H33.5613ZM36.7613 180.52H43.8213V182.64H27.1413V180.52H34.1213V177.24H28.5413V175.14H30.9413V169.92H28.4413V167.82H42.4413V169.92H39.9413V175.14H42.3813V177.24H36.7613V180.52ZM56.5197 174.66L55.2597 176.7C53.2397 176.1 51.8397 174.88 51.0397 173.36C50.2197 175.18 48.7597 176.64 46.5997 177.34L45.2797 175.28C48.2597 174.28 49.5797 171.94 49.6197 169.64H45.9597V167.52H55.9197V169.64H52.3197C52.3597 171.74 53.6197 173.8 56.5197 174.66ZM54.0197 182.7C56.3597 182.7 57.6197 182.2 57.6197 181.16C57.6197 180.1 56.3597 179.6 54.0197 179.6C51.6597 179.6 50.3997 180.1 50.3997 181.16C50.3997 182.2 51.6597 182.7 54.0197 182.7ZM54.0197 177.56C57.8397 177.56 60.2397 178.9 60.2397 181.16C60.2397 183.4 57.8397 184.72 54.0197 184.72C50.1797 184.72 47.7797 183.4 47.7797 181.16C47.7797 178.9 50.1797 177.56 54.0197 177.56ZM60.0397 170.54H62.4797V172.7H60.0397V177.24H57.3997V166.3H60.0397V170.54Z" fill="#367CFF"/>
<path d="M68.3581 178.56C69.3581 178.56 70.0781 177.76 70.0781 176.38C70.0781 175 69.3581 174.18 68.3581 174.18C67.3581 174.18 66.6381 175 66.6381 176.38C66.6381 177.76 67.3581 178.56 68.3581 178.56ZM68.3581 171.98C70.7181 171.98 72.3981 173.8 72.3981 176.38C72.3981 178.94 70.7181 180.76 68.3581 180.76C65.9981 180.76 64.3181 178.94 64.3181 176.38C64.3181 173.8 65.9981 171.98 68.3581 171.98ZM69.6581 166.8V169.08H72.7181V171.18H63.9181V169.08H67.0581V166.8H69.6581ZM77.2381 166.28H79.7381V184.7H77.2381V175.92H75.8381V183.94H73.3781V166.64H75.8381V173.8H77.2381V166.28ZM89.2566 167.72V170.38C89.2566 173.86 90.5966 177.24 93.6366 178.6L92.0766 180.7C90.0566 179.72 88.7166 177.92 87.9566 175.7C87.1566 178.06 85.7766 179.98 83.7166 181.02L82.0766 178.9C85.1966 177.46 86.5966 173.88 86.5966 170.38V167.72H89.2566ZM95.1566 166.28H97.7966V184.76H95.1566V174.18H91.6166V172.06H95.1566V166.28ZM106.907 168.18H115.587C115.587 173.7 113.487 178.44 107.367 181.54L105.887 179.52C110.167 177.32 112.447 174.4 112.927 170.32H106.907V168.18ZM123.067 173.32V175.5H120.487V184.68H117.847V166.28H120.487V173.32H123.067ZM131.385 170.2V170.84C131.385 173.76 132.865 177.3 135.865 178.86L134.345 180.9C132.365 179.88 130.945 177.88 130.125 175.56C129.385 178.12 127.985 180.24 125.925 181.36L124.245 179.34C127.265 177.84 128.725 174.24 128.725 170.84V170.2H124.965V168.06H135.085V170.2H131.385ZM137.285 166.3H139.925V184.72H137.285V177.38H134.345V175.2H137.285V173.52H134.345V171.34H137.285V166.3ZM143.664 166.98H152.364C152.364 171.9 149.264 174.86 143.704 175.98L142.764 173.84C147.064 173.04 149.124 171.2 149.424 169.08H143.664V166.98ZM147.844 181.3V182.46H157.904V184.54H145.224V179.34H154.764V178.28H145.204V176.2H157.364V181.3H147.844ZM157.364 169.96H159.804V172.12H157.364V175.48H154.724V166.28H157.364V169.96ZM170.722 173.34V166.7H173.182V183.9H170.722V175.46H167.842C166.802 177.56 165.122 179.38 162.522 180.9L161.022 179.04C164.702 176.84 166.322 174.18 166.642 170.58H162.042V168.48H169.262C169.262 170.22 169.102 171.84 168.662 173.34H170.722ZM174.602 166.28H177.102V184.7H174.602V166.28ZM185.961 176.92V180.44H190.021V176.92C189.381 177.04 188.701 177.1 187.981 177.1C187.261 177.1 186.601 177.04 185.961 176.92ZM187.981 169.28C185.421 169.28 183.721 170.32 183.721 172.16C183.721 173.98 185.421 175.04 187.981 175.04C190.541 175.04 192.261 173.98 192.261 172.16C192.261 170.32 190.541 169.28 187.981 169.28ZM192.641 180.44H196.341V182.58H179.661V180.44H183.341V175.94C181.941 175.08 181.101 173.76 181.121 172.16C181.121 169.14 184.021 167.2 187.981 167.2C191.961 167.2 194.861 169.14 194.861 172.16C194.861 173.76 194.021 175.08 192.641 175.94V180.44Z" fill="black"/>
<rect x="0.5" y="0.5" width="222" height="215" stroke="#72A3FF"/>
<path d="M114.31 127.817L99.3275 127.757C99.9503 124.045 100.056 119.799 100.224 115.957C100.27 115.005 100.576 114.055 101.138 113.112C103.549 109.041 105.121 104.995 108.366 100.948L108.474 100.956L108.791 100.448L139.597 100L141.201 104.735C141.201 104.735 145.214 121.116 147.044 127.702L132.116 128C127.081 122 126.594 120.5 122.703 114C119.763 117.303 117.763 118.21 115.206 121.485C114.695 125.583 114.908 124 114.31 127.817Z" fill="#262626"/>
<path d="M59.8382 80.2012C59.8382 80.2012 56.5072 78.539 54.0052 79.1765C52.8714 79.4657 52.4973 79.8508 52.591 80.2225C52.0396 80.3754 51.6687 80.615 51.6529 80.9821C51.6529 80.9821 51.3826 85.6908 52.2209 86.4171C53.4874 87.5155 59.7603 86.6554 59.7603 86.6554L59.8382 80.2012Z" fill="#E98862"/>
<path d="M74.217 87.9005H98.3519C99.0666 87.9005 99.7697 87.716 100.397 87.3639C101.024 87.0117 101.554 86.5033 101.94 85.8853L117.19 61.4386L110.014 56.717L96.0232 79.1499H74.217V87.9005Z" fill="#367CFF"/>
<path d="M106.806 102.813C108.507 106.826 141.914 108.493 142.361 101.434C142.645 96.942 138.79 93.0209 138.79 84.2661C138.79 75.5113 146.634 64.3313 140.243 57.7683C138.388 55.864 135.187 54.6348 131.283 54.6306C130.991 56.9683 117.17 56.9766 117.064 54.6848C116.537 54.6931 116.127 54.7015 115.871 54.714C102.408 55.3098 108.324 71.0443 108.454 82.6035C108.612 96.1294 105.053 98.6784 106.806 102.813Z" fill="#367CFF"/>
<path d="M117.064 54.6848C117.17 56.9766 118.383 60.3477 122.129 60.6019C127.12 60.9394 130.991 56.9683 131.283 54.6306H131.271C126.357 54.6306 119.929 54.639 117.064 54.6848Z" fill="#E98862"/>
<path d="M102.471 67.7812H61.4995V102.77H102.471V67.7812Z" fill="#0CBC8B"/>
<path opacity="0.26" d="M102.471 67.7812H61.4995V102.77H102.471V67.7812Z" fill="#0F1011"/>
<path d="M89.4855 67.7812H52.5723V102.77H89.4855V67.7812Z" fill="#0CBC8B"/>
<path d="M102.609 84.6719H102.6C102.538 84.6603 102.475 84.6515 102.411 84.6444C101.41 84.5007 96.8519 83.8831 95.7372 84.3698C95.3622 84.5336 95.4296 84.8149 95.6775 85.1149C93.6308 85.3136 91.8673 85.8291 91.8149 87.403C91.7232 90.129 98.2262 90.8553 100.377 90.6282C102.308 90.4232 105.248 85.1641 102.609 84.6719Z" fill="#E98862"/>
<path d="M100.813 92.3029L125.923 91.5166C126.707 91.4921 127.47 91.2541 128.135 90.8269C128.799 90.3997 129.342 89.7988 129.706 89.0856L142.103 64.8114L134.267 60.5923L123.07 82.5168L100.544 83.2223L100.813 92.3029Z" fill="#367CFF"/>
<path d="M127.444 48.766C127.44 48.6577 127.44 48.5452 127.44 48.4327C127.436 47.6743 127.469 46.8492 127.542 45.9491L126.763 45.7991L125.975 45.6491L121.057 44.7157C121.17 46.1953 121.148 47.6823 120.993 49.1577C120.972 49.3577 120.944 49.5619 120.915 49.7661C120.895 49.9119 120.871 50.0536 120.846 50.1995C120.842 50.237 120.834 50.2786 120.826 50.3203C120.769 50.6453 120.704 50.9662 120.623 51.2829C120.611 51.3477 120.594 51.4117 120.575 51.4745C120.574 51.4861 120.571 51.4973 120.566 51.5079C120.534 51.6454 120.493 51.7871 120.449 51.9204C120.404 52.0746 120.355 52.2246 120.299 52.3746C120.278 52.4371 120.254 52.4996 120.23 52.5621C120.225 52.5795 120.218 52.5963 120.209 52.6121C120.181 52.6913 120.149 52.7663 120.112 52.8455C120.097 52.8895 120.079 52.9327 120.059 52.9747C119.99 53.133 119.917 53.283 119.84 53.4288C119.839 53.4288 119.838 53.4293 119.837 53.4301C119.836 53.4309 119.836 53.4319 119.836 53.433C119.53 54.0484 119.1 54.5897 118.574 55.0206H128.77C128.138 53.9039 127.489 51.9788 127.444 48.766Z" fill="#E98862"/>
<path d="M119.835 53.4347L125.221 49.204L120.991 49.159C120.868 50.6457 120.476 52.0958 119.835 53.4347Z" fill="#C98481"/>
<path d="M131.219 42.5493C130.771 45.2116 129.356 47.7322 127.069 48.5914C124.577 49.6074 121.88 49.9815 119.214 49.6811C112.117 49.0836 113.521 32.5132 116.891 29.2938C120.26 26.0744 130.149 28.1133 131.352 33.497C131.975 36.2801 131.647 40.0137 131.219 42.5493Z" fill="#E98862"/>
<path d="M121.067 40.4971C121.392 40.4971 121.655 40.2268 121.655 39.8933C121.655 39.5598 121.392 39.2895 121.067 39.2895C120.742 39.2895 120.479 39.5598 120.479 39.8933C120.479 40.2268 120.742 40.4971 121.067 40.4971Z" fill="#0F1011"/>
<path d="M116.429 40.1063C116.753 40.1063 117.017 39.8359 117.017 39.5025C117.017 39.169 116.753 38.8987 116.429 38.8987C116.104 38.8987 115.841 39.169 115.841 39.5025C115.841 39.8359 116.104 40.1063 116.429 40.1063Z" fill="#0F1011"/>
<path d="M115.41 38.2157H115.413L116.971 38.1961C117.044 38.1956 117.115 38.1652 117.166 38.1117C117.217 38.0581 117.246 37.9857 117.246 37.9105C117.245 37.8352 117.216 37.7632 117.163 37.7104C117.111 37.6575 117.041 37.6281 116.968 37.6286H116.964L115.406 37.6486C115.335 37.6518 115.268 37.6833 115.218 37.7365C115.169 37.7896 115.142 37.8603 115.142 37.9337C115.143 38.0071 115.171 38.0775 115.221 38.1301C115.271 38.1827 115.338 38.2134 115.41 38.2157Z" fill="#0F1011"/>
<path d="M122.337 38.799C122.404 38.7989 122.47 38.7733 122.52 38.7271C122.57 38.6809 122.603 38.6173 122.611 38.5484C122.618 38.4795 122.601 38.41 122.563 38.3531C122.524 38.2961 122.467 38.2557 122.401 38.2394L120.865 37.8598C120.794 37.8412 120.719 37.8523 120.656 37.8907C120.593 37.9291 120.547 37.9917 120.529 38.0646C120.511 38.1376 120.522 38.2149 120.559 38.2796C120.596 38.3444 120.657 38.3912 120.728 38.4098H120.736L122.271 38.7895C122.293 38.7953 122.315 38.7986 122.337 38.799Z" fill="#0F1011"/>
<path d="M127.161 48.2722C127.296 48.7148 127.39 48.9077 127.778 48.671C129.302 47.741 132.108 46.8709 133.277 39.2895C134.324 32.4974 128.944 30.0997 125.689 29.0996C122.884 28.2379 123.551 28.5008 120.479 30.4026C117.831 32.0415 114.782 33.8546 114.782 33.8546C115.952 33.91 116.188 34.943 118.949 34.943C121.083 34.943 122.471 33.9637 124.47 34.05C126.299 34.1287 126.675 35.2738 126.61 36.0085C126.217 40.4592 126.684 46.7071 127.161 48.2722Z" fill="#0F1011"/>
<path d="M124.126 41.3705C124.082 42.0416 124.297 42.7035 124.724 43.2132C125.151 43.7228 125.757 44.0392 126.41 44.094C127.063 44.1487 127.71 43.9374 128.213 43.5057C128.715 43.0741 129.032 42.4567 129.094 41.7872C129.126 41.4583 129.094 41.1261 129.001 40.8097C128.908 40.4934 128.755 40.1989 128.551 39.9433C128.347 39.6876 128.096 39.4757 127.812 39.3197C127.528 39.1637 127.218 39.0666 126.897 39.0341C126.87 39.0311 126.842 39.0286 126.814 39.027C125.036 38.9691 124.238 39.9616 124.126 41.3705Z" fill="#E98862"/>
<g opacity="0.15">
<path d="M118.457 43.2419C118.506 43.2419 118.553 43.224 118.59 43.1914C118.626 43.1589 118.651 43.1138 118.658 43.0645C118.665 43.0151 118.655 42.9647 118.629 42.9225C118.603 42.8803 118.563 42.849 118.517 42.8343L117.321 42.4572L118.157 40.5446C118.18 40.4945 118.182 40.4371 118.164 40.3852C118.146 40.3333 118.108 40.291 118.059 40.2677C118.01 40.2444 117.954 40.2419 117.904 40.2609C117.853 40.2798 117.812 40.3186 117.789 40.3687V40.3737L116.859 42.5022C116.848 42.5272 116.842 42.5541 116.841 42.5815C116.84 42.6089 116.845 42.6361 116.854 42.6617C116.864 42.6873 116.878 42.7107 116.897 42.7306C116.915 42.7505 116.937 42.7665 116.961 42.7777C116.969 42.781 116.977 42.7839 116.984 42.7864L118.4 43.2327C118.418 43.2386 118.438 43.2417 118.457 43.2419Z" fill="black"/>
</g>
<path d="M125.221 37.8465L126.61 38.3257C126.61 38.3257 126.429 43.3861 125.915 45.96C125.402 48.5339 125.002 51.8888 123.407 52.2575C121.29 52.7467 118.263 52.7676 116.428 52.0942C114.358 51.335 114.409 43.4573 114.409 43.4573C114.409 43.4573 121.063 44.1978 122.907 43.2906C124.751 42.3835 125.221 37.8465 125.221 37.8465Z" fill="#0F1011"/>
<path d="M120.795 44.6482C120.795 44.6482 118.625 44.8832 117.103 44.3374C117.103 44.3374 117.115 45.8054 118.832 45.95C120.549 46.0946 120.795 44.6482 120.795 44.6482Z" fill="#F8FCFF"/>
<path d="M126.814 39.0286C126.814 39.0286 130.942 38.5419 133.253 39.5024C133.253 39.5024 135.442 28.1354 124.864 27.0849C114.287 26.0344 115.001 35.0821 115.001 35.0821L123.338 34.5704L126.814 39.0286Z" fill="#262626"/>
<path d="M126.814 39.0286C126.814 39.0286 123.214 36.1893 120.212 36.1893H114.121C114.121 36.1893 109.189 32.8811 109.207 32.064C109.244 30.3622 117.995 30.5151 119.836 31.2489C121.678 31.9827 126.814 39.0286 126.814 39.0286Z" fill="#262626"/>
<path opacity="0.21" d="M126.814 39.0286C126.814 39.0286 123.214 36.1893 120.212 36.1893H114.121C114.121 36.1893 109.189 32.8811 109.207 32.064C109.244 30.3622 117.995 30.5151 119.836 31.2489C121.678 31.9827 126.814 39.0286 126.814 39.0286Z" fill="black"/>
<path d="M52.223 86.4187C52.337 86.5115 52.4643 86.5858 52.6004 86.6387C53.3284 86.7929 55.1629 86.342 55.4571 85.8195C55.9359 84.969 55.6389 81.8963 55.2165 80.7812C54.82 79.7395 52.8455 80.1757 52.5862 80.2249C52.5782 80.2281 52.5699 80.2304 52.5615 80.2316C52.023 80.3833 51.6687 80.6204 51.6537 80.9841C51.6537 80.9841 51.3818 85.6886 52.223 86.4187Z" fill="#E98862"/>
</svg>
