<svg width="830" height="1194" viewBox="0 0 830 1194" fill="none" xmlns="http://www.w3.org/2000/svg">
<rect width="830" height="1194" rx="60" fill="white"/>
<path d="M311.036 464.872L309.5 461.576C315.516 460.84 318.652 457.96 319.068 455.144H310.588V451.784H332.444V455.144H324.092C324.508 457.96 327.612 460.84 333.596 461.576L332.092 464.872C326.94 464.168 323.324 461.96 321.564 458.952C319.804 461.96 316.188 464.168 311.036 464.872ZM334.876 466.568V469.928H323.58V479.816H319.356V469.928H308.252V466.568H334.876ZM356.761 459.176V454.824H345.081V459.176H356.761ZM360.921 451.528V462.504H340.921V451.528H360.921ZM344.953 470.696V475.88H361.369V479.24H340.729V470.696H344.953ZM337.625 464.84H364.313V468.168H353.465V473.192H349.241V468.168H337.625V464.84Z" fill="#367CFF"/>
<path d="M380.407 453.8C376.151 453.8 374.135 454.408 374.135 455.72C374.135 457.096 376.151 457.672 380.407 457.672C384.695 457.672 386.711 457.096 386.711 455.72C386.711 454.408 384.695 453.8 380.407 453.8ZM380.407 460.744C373.687 460.744 369.751 458.984 369.751 455.72C369.751 452.488 373.687 450.696 380.407 450.696C387.159 450.696 391.095 452.488 391.095 455.72C391.095 458.984 387.159 460.744 380.407 460.744ZM374.359 474.696V476.36H391.255V479.528H370.167V471.784H386.327V470.216H370.135V467.112H390.487V474.696H374.359ZM367.095 462.152H393.719V465.448H367.095V462.152ZM413.294 470.28C415.278 470.28 416.718 468.936 416.718 466.664C416.718 464.456 415.278 463.08 413.294 463.08C411.31 463.08 409.838 464.456 409.838 466.696C409.838 468.936 411.31 470.28 413.294 470.28ZM413.294 459.656C417.55 459.656 420.718 462.568 420.718 466.664C420.718 470.824 417.55 473.736 413.294 473.736C409.006 473.736 405.806 470.824 405.806 466.664C405.806 462.568 409.006 459.656 413.294 459.656ZM415.374 450.792V454.632H421.774V457.992H404.622V454.632H411.15V450.792H415.374ZM432.142 461.8V465.288H427.918V479.752H423.694V450.28H427.918V461.8H432.142ZM445.644 452.552V456.84C445.644 462.312 447.98 467.688 452.972 469.832L450.572 473.256C447.18 471.72 444.908 468.808 443.596 465.192C442.284 469.128 439.884 472.296 436.364 473.96L433.836 470.472C438.988 468.264 441.42 462.568 441.42 456.84V452.552H445.644ZM454.412 450.248H458.636V479.816H454.412V450.248ZM468.841 464.136V469.768C472.393 469.736 475.561 469.576 479.241 469.032L479.561 472.488C475.209 473.16 471.465 473.256 467.049 473.256H464.681V460.808H473.609V456.104H464.617V452.744H477.769V464.136H468.841ZM484.073 450.248H488.329V479.816H484.073V467.912H479.177V464.52H484.073V459.912H479.241V456.52H484.073V450.248ZM504.071 463.72V455.944H498.471V463.72H504.071ZM513.511 458.28H508.199V461.256H513.511V458.28ZM508.199 464.616V467.048H494.311V452.648H508.199V454.92H513.511V450.28H517.735V471.752H513.511V464.616H508.199ZM502.503 475.88H518.375V479.24H498.279V469.736H502.503V475.88ZM202.128 511.584V505.952H196.368V511.584H202.128ZM206.288 502.656V514.912H192.24V502.656H206.288ZM199.344 525.216V527.136H215.44V530.4H195.152V522.176H210.416V520.416H195.12V517.152H214.576V525.216H199.344ZM214.576 506.944H218.448V510.4H214.576V516H210.352V501.28H214.576V506.944ZM234.126 504.8C229.87 504.8 227.854 505.408 227.854 506.72C227.854 508.096 229.87 508.672 234.126 508.672C238.414 508.672 240.43 508.096 240.43 506.72C240.43 505.408 238.414 504.8 234.126 504.8ZM234.126 511.744C227.406 511.744 223.47 509.984 223.47 506.72C223.47 503.488 227.406 501.696 234.126 501.696C240.878 501.696 244.814 503.488 244.814 506.72C244.814 509.984 240.878 511.744 234.126 511.744ZM228.078 525.696V527.36H244.974V530.528H223.886V522.784H240.046V521.216H223.854V518.112H244.206V525.696H228.078ZM220.814 513.152H247.438V516.448H220.814V513.152ZM278.917 516V510.88H273.765V507.52H278.917V501.248H283.141V516H278.917ZM260.549 502.368H273.445C273.445 510.048 268.901 514.72 260.261 516.768L258.853 513.472C265.285 512.032 268.357 509.216 268.901 505.728H260.549V502.368ZM267.973 527.136H283.749V530.464H263.749V522.144H278.917V520.448H263.717V517.12H283.141V525.28H267.973V527.136ZM288.995 504.32H302.851C302.851 513.216 300.003 520.576 289.827 525.664L287.587 522.4C294.947 518.688 297.987 514.112 298.563 507.68H288.995V504.32ZM308.355 501.28H312.579V530.752H308.355V516H302.659V512.576H308.355V501.28ZM322.496 504.064V520C326.208 519.904 330.208 519.584 334.336 518.784L334.752 522.24C329.856 523.264 325.12 523.52 320.832 523.52H318.272V504.064H322.496ZM344.576 512.384V515.872H340.448V530.688H336.224V501.248H340.448V512.384H344.576ZM372.632 504.512V507.84H355.288V504.512H361.88V501.408H366.104V504.512H372.632ZM360.792 514.528C360.792 516.096 362.072 516.928 363.992 516.928C365.912 516.928 367.192 516.096 367.192 514.528C367.192 513.024 365.912 512.192 363.992 512.192C362.072 512.192 360.792 513.024 360.792 514.528ZM366.104 519.872V522.208C368.376 522.08 370.648 521.92 372.76 521.6L373.08 524.64C366.872 525.856 360.248 525.856 355.256 525.856L354.743 522.432C356.856 522.432 359.288 522.432 361.88 522.368V519.872C358.808 519.232 356.792 517.248 356.792 514.528C356.792 511.232 359.768 508.992 363.992 508.992C368.216 508.992 371.192 511.232 371.192 514.528C371.192 517.248 369.176 519.232 366.104 519.872ZM382.168 513.28V516.768H378.488V530.752H374.264V501.28H378.488V513.28H382.168ZM395.477 514.72V506.944H389.877V514.72H395.477ZM404.917 509.28H399.605V512.256H404.917V509.28ZM399.605 515.616V518.048H385.717V503.648H399.605V505.92H404.917V501.28H409.141V522.752H404.917V515.616H399.605ZM393.909 526.88H409.781V530.24H389.685V520.736H393.909V526.88ZM427.251 504.8C422.995 504.8 420.979 505.408 420.979 506.72C420.979 508.096 422.995 508.672 427.251 508.672C431.539 508.672 433.555 508.096 433.555 506.72C433.555 505.408 431.539 504.8 427.251 504.8ZM427.251 511.744C420.531 511.744 416.595 509.984 416.595 506.72C416.595 503.488 420.531 501.696 427.251 501.696C434.003 501.696 437.939 503.488 437.939 506.72C437.939 509.984 434.003 511.744 427.251 511.744ZM421.203 525.696V527.36H438.099V530.528H417.011V522.784H433.171V521.216H416.979V518.112H437.331V525.696H421.203ZM413.939 513.152H440.563V516.448H413.939V513.152ZM457.162 515.232V520.736C461.13 520.704 464.362 520.544 467.978 519.968L468.362 523.36C464.106 524.032 460.33 524.128 455.37 524.128H452.97V503.744H466.602V507.136H457.162V511.936H465.61V515.232H457.162ZM472.138 501.248H476.362V530.816H472.138V515.04H467.082V511.648H472.138V501.248ZM492.552 509.44V510.464C492.552 514.72 494.888 519.52 499.72 521.6L497.48 524.832C494.152 523.456 491.816 520.64 490.504 517.28C489.192 520.832 486.824 523.84 483.464 525.344L481.192 522.112C486.024 519.936 488.328 514.944 488.328 510.464V509.44H482.184V506.08H488.328V501.984H492.552V506.08H498.568V509.44H492.552ZM501.288 501.28H505.512V530.752H501.288V501.28ZM517.573 520.896C519.173 520.896 520.325 519.616 520.325 517.408C520.325 515.2 519.173 513.888 517.573 513.888C515.973 513.888 514.821 515.2 514.821 517.408C514.821 519.616 515.973 520.896 517.573 520.896ZM517.573 510.368C521.349 510.368 524.037 513.28 524.037 517.408C524.037 521.504 521.349 524.416 517.573 524.416C513.797 524.416 511.109 521.504 511.109 517.408C511.109 513.28 513.797 510.368 517.573 510.368ZM519.653 502.08V505.728H524.549V509.088H510.469V505.728H515.493V502.08H519.653ZM531.781 501.248H535.781V530.72H531.781V516.672H529.541V529.504H525.605V501.824H529.541V513.28H531.781V501.248ZM542.755 515.872L541.219 512.576C547.235 511.84 550.371 508.96 550.787 506.144H542.307V502.784H564.163V506.144H555.811C556.227 508.96 559.331 511.84 565.315 512.576L563.811 515.872C558.659 515.168 555.043 512.96 553.283 509.952C551.523 512.96 547.907 515.168 542.755 515.872ZM566.595 517.568V520.928H555.299V530.816H551.075V520.928H539.971V517.568H566.595ZM578.784 503.84V508.64C578.784 513.408 580.064 518.304 584.064 520.96L581.76 524.224C579.264 522.688 577.696 520.192 576.768 517.216C575.744 520.48 574.016 523.296 571.36 524.896L568.832 521.728C573.152 519.104 574.72 513.824 574.72 508.8V503.84H578.784ZM584.672 511.232V501.76H588.608V529.44H584.672V514.656H580.96V511.232H584.672ZM590.656 501.28H594.656V530.752H590.656V501.28ZM608.894 518.272V523.904H615.39V518.272C614.366 518.464 613.278 518.56 612.126 518.56C610.974 518.56 609.918 518.464 608.894 518.272ZM612.126 506.048C608.03 506.048 605.31 507.712 605.31 510.656C605.31 513.568 608.03 515.264 612.126 515.264C616.222 515.264 618.974 513.568 618.974 510.656C618.974 507.712 616.222 506.048 612.126 506.048ZM619.582 523.904H625.502V527.328H598.814V523.904H604.702V516.704C602.462 515.328 601.118 513.216 601.15 510.656C601.15 505.824 605.79 502.72 612.126 502.72C618.494 502.72 623.134 505.824 623.134 510.656C623.134 513.216 621.79 515.328 619.582 516.704V523.904ZM632.438 528.391C630.844 528.391 629.688 527.219 629.688 525.672C629.688 524.125 630.844 522.969 632.438 522.969C634.047 522.969 635.188 524.125 635.188 525.672C635.188 527.219 634.047 528.391 632.438 528.391Z" fill="black"/>
<g clip-path="url(#clip0_1_102)">
<path d="M382.31 674.135C382.182 674.135 382.055 674.11 381.937 674.061C381.819 674.012 381.712 673.94 381.622 673.85L377.077 669.305C376.9 669.122 376.802 668.876 376.804 668.62C376.806 668.365 376.909 668.121 377.089 667.94C377.27 667.76 377.514 667.657 377.769 667.655C378.025 667.653 378.271 667.751 378.454 667.928L382.998 672.473C383.135 672.609 383.227 672.782 383.265 672.971C383.302 673.16 383.283 673.356 383.209 673.534C383.136 673.712 383.011 673.864 382.851 673.971C382.691 674.078 382.503 674.135 382.31 674.135Z" fill="#0CBC8B"/>
<path d="M377.765 674.135C377.573 674.135 377.385 674.078 377.224 673.971C377.064 673.864 376.94 673.712 376.866 673.534C376.792 673.356 376.773 673.16 376.81 672.971C376.848 672.782 376.941 672.609 377.077 672.473L381.621 667.928C381.805 667.751 382.051 667.653 382.306 667.655C382.561 667.657 382.806 667.76 382.986 667.94C383.167 668.121 383.269 668.365 383.271 668.62C383.274 668.876 383.175 669.122 382.998 669.305L378.454 673.85C378.363 673.94 378.256 674.012 378.138 674.061C378.02 674.11 377.893 674.135 377.765 674.135Z" fill="#0CBC8B"/>
<path d="M512.421 717.568L511.124 720.544L519.106 724.024L520.403 721.048L512.421 717.568Z" fill="#0CBC8B"/>
<path d="M514.94 637.797L507.432 642.209L509.077 645.008L516.585 640.596L514.94 637.797Z" fill="#0CBC8B"/>
<path d="M389.828 645.353L388.822 648.439L397.103 651.137L398.108 648.051L389.828 645.353Z" fill="#0CBC8B"/>
<path d="M399.521 697.115L392.389 702.105L394.249 704.764L401.381 699.774L399.521 697.115Z" fill="#0CBC8B"/>
<path d="M530.336 685.677L530.038 688.909L538.52 689.691L538.818 686.459L530.336 685.677Z" fill="#0CBC8B"/>
<path d="M538.974 662.427C538.846 662.428 538.719 662.402 538.601 662.353C538.483 662.305 538.376 662.233 538.285 662.142L533.741 657.598C533.648 657.508 533.574 657.401 533.523 657.282C533.472 657.163 533.445 657.035 533.444 656.906C533.443 656.777 533.467 656.648 533.516 656.529C533.565 656.409 533.638 656.3 533.729 656.209C533.82 656.117 533.929 656.045 534.049 655.996C534.169 655.947 534.297 655.923 534.426 655.924C534.555 655.925 534.683 655.952 534.802 656.003C534.921 656.054 535.028 656.128 535.118 656.221L539.662 660.765C539.798 660.901 539.891 661.075 539.929 661.264C539.966 661.453 539.947 661.648 539.873 661.826C539.8 662.004 539.675 662.156 539.515 662.263C539.355 662.37 539.166 662.427 538.974 662.427Z" fill="#0CBC8B"/>
<path d="M534.43 662.427C534.237 662.427 534.049 662.37 533.889 662.263C533.729 662.156 533.604 662.004 533.53 661.826C533.457 661.648 533.437 661.453 533.475 661.264C533.513 661.075 533.605 660.901 533.741 660.765L538.286 656.221C538.375 656.128 538.483 656.054 538.602 656.003C538.721 655.952 538.848 655.925 538.978 655.924C539.107 655.923 539.235 655.947 539.355 655.996C539.474 656.045 539.583 656.117 539.675 656.209C539.766 656.3 539.838 656.409 539.887 656.529C539.936 656.648 539.961 656.777 539.96 656.906C539.959 657.035 539.932 657.163 539.881 657.282C539.83 657.401 539.756 657.508 539.663 657.598L535.118 662.142C535.028 662.233 534.921 662.304 534.803 662.353C534.684 662.402 534.558 662.427 534.43 662.427Z" fill="#0CBC8B"/>
<path d="M290.358 786.593H570.095C570.169 786.593 570.24 786.555 570.292 786.489C570.345 786.423 570.374 786.333 570.374 786.239C570.374 786.145 570.345 786.055 570.292 785.988C570.24 785.922 570.169 785.885 570.095 785.885H290.358C290.284 785.885 290.213 785.922 290.16 785.988C290.108 786.055 290.078 786.145 290.078 786.239C290.078 786.333 290.108 786.423 290.16 786.489C290.213 786.555 290.284 786.593 290.358 786.593Z" fill="#292A2E"/>
</g>
<path opacity="0.7" d="M459.247 720.47C480.528 720.47 497.78 702.859 497.78 681.135C497.78 659.411 480.528 641.8 459.247 641.8C437.966 641.8 420.714 659.411 420.714 681.135C420.714 702.859 437.966 720.47 459.247 720.47Z" fill="#367CFF"/>
<path d="M459.248 656.478H459.247C454.411 656.478 450.49 660.399 450.49 665.235V682.963C450.49 687.8 454.411 691.72 459.247 691.72H459.248C464.084 691.72 468.005 687.8 468.005 682.963V665.235C468.005 660.399 464.084 656.478 459.248 656.478Z" fill="white"/>
<path d="M473.588 683.379V678.718C473.591 678.598 473.57 678.48 473.526 678.369C473.482 678.258 473.417 678.156 473.333 678.071C473.25 677.986 473.15 677.918 473.04 677.871C472.93 677.825 472.812 677.801 472.693 677.801C472.573 677.801 472.455 677.825 472.345 677.871C472.235 677.918 472.135 677.986 472.052 678.071C471.969 678.156 471.903 678.258 471.859 678.369C471.816 678.48 471.794 678.598 471.797 678.718V683.379C471.797 690.443 466.167 696.191 459.247 696.191C452.326 696.191 446.696 690.443 446.696 683.379V678.718C446.696 678.48 446.602 678.253 446.434 678.085C446.266 677.917 446.038 677.823 445.801 677.823C445.563 677.823 445.336 677.917 445.168 678.085C445 678.253 444.906 678.48 444.906 678.718V683.379C444.906 691.144 450.86 697.513 458.352 697.987V704.801H449.259C449.02 704.807 448.793 704.906 448.626 705.076C448.459 705.247 448.366 705.477 448.366 705.715C448.366 705.954 448.459 706.183 448.626 706.354C448.793 706.525 449.02 706.624 449.259 706.629H469.235C469.474 706.624 469.701 706.525 469.868 706.354C470.035 706.183 470.128 705.954 470.128 705.715C470.128 705.477 470.035 705.247 469.868 705.076C469.701 704.906 469.474 704.807 469.235 704.801H460.143V697.987C467.634 697.513 473.588 691.143 473.588 683.379Z" fill="white"/>
<path opacity="0.3" d="M459.247 732.436C431.536 732.436 408.992 709.422 408.992 681.135C408.992 652.847 431.536 629.833 459.247 629.833C486.958 629.833 509.502 652.847 509.502 681.135C509.502 709.423 486.958 732.436 459.247 732.436ZM459.247 630.413C431.85 630.413 409.56 653.167 409.56 681.135C409.56 709.103 431.85 731.856 459.247 731.856C486.645 731.856 508.934 709.102 508.934 681.135C508.934 653.167 486.645 630.413 459.247 630.413Z" fill="#367CFF"/>
<path d="M295.17 767.239C293.21 767.238 291.278 766.764 289.539 765.857C287.801 764.949 286.308 763.635 285.187 762.027C284.065 760.418 283.349 758.562 283.099 756.617C282.85 754.672 283.073 752.696 283.752 750.856C284.44 748.988 302.099 703.403 305.175 695.481L326.426 707.848C324.697 712.303 318.435 729.188 313.404 742.79L321.762 741.882L324.393 764.136L296.489 767.169C296.051 767.216 295.611 767.239 295.17 767.239Z" fill="#367CFF"/>
<path d="M309.758 767.943L306.046 786.418H378.137L373.984 767.592L309.758 767.943Z" fill="#262626"/>
<path d="M364.68 686.002C364.605 685.992 362.56 693.688 346.6 692.49C335.551 691.662 332.857 684.142 332.604 684.142C333.795 683.889 335.73 683.626 336.259 683.343C337.998 682.408 339.266 681.27 339.904 678.828C340.403 676.918 340.657 669.566 340.657 665.877L357.659 669.698C357.422 673.859 355.763 683.506 361.577 685.213C362.544 685.495 363.586 685.755 364.68 686.002Z" fill="#E98862"/>
<path d="M357.071 677.878C350.369 678.408 341.759 675.577 340.123 666.635L338.648 658.566C337.012 649.624 340.383 641.516 348.803 639.976C357.223 638.436 364.842 644.534 366.477 653.477L367.131 657.049C367.757 660.48 369.029 676.935 357.071 677.878Z" fill="#E98862"/>
<path d="M325.345 685.38C319.322 685.827 313.18 686.479 308.748 690.582C303.41 695.523 302.443 701.599 305.848 718.32C308.778 732.708 307.616 738.995 309.576 765.543C309.634 766.326 309.758 767.943 309.758 767.943L374.188 767.836C374.188 767.836 380.226 732.613 383.559 716.367C386.094 704.016 392.752 689.022 364.68 686.001C364.606 685.993 342.091 684.137 325.345 685.38Z" fill="#367CFF"/>
<path d="M309.757 768.106C309.715 768.106 309.675 768.09 309.645 768.06C309.614 768.031 309.597 767.992 309.595 767.95L307.576 715.537C307.574 715.494 307.59 715.452 307.619 715.42C307.648 715.389 307.689 715.37 307.732 715.368C307.753 715.367 307.775 715.369 307.795 715.377C307.816 715.384 307.835 715.395 307.85 715.409C307.866 715.424 307.879 715.442 307.887 715.462C307.896 715.481 307.9 715.503 307.9 715.524L309.92 767.937C309.921 767.98 309.906 768.022 309.876 768.054C309.847 768.085 309.807 768.104 309.764 768.105L309.757 768.106Z" fill="#0C0C0C"/>
<path d="M413.143 704.094L417.67 693.939C417.77 693.716 417.914 693.516 418.095 693.352C418.276 693.188 418.49 693.064 418.721 692.987C418.953 692.909 419.198 692.881 419.442 692.904C419.685 692.927 419.921 693.001 420.134 693.12C420.521 693.351 420.809 693.719 420.94 694.151C421.072 694.583 421.038 695.048 420.846 695.457L419.876 697.634L426.071 692.188C426.749 691.571 427.976 691.246 428.619 692.053C428.886 692.347 429.046 692.723 429.072 693.12C429.099 693.517 428.99 693.911 428.763 694.237C428.771 694.242 428.778 694.248 428.784 694.254C428.788 694.26 428.791 694.266 428.794 694.272L429.84 693.32C430.034 693.144 430.264 693.013 430.515 692.937C430.766 692.861 431.03 692.842 431.289 692.882C431.548 692.921 431.795 693.018 432.012 693.165C432.229 693.311 432.41 693.505 432.543 693.731C432.745 694.091 432.817 694.509 432.747 694.916C432.677 695.323 432.47 695.693 432.16 695.965L431.715 696.37C431.721 696.389 431.723 696.408 431.722 696.427C432.086 696.223 432.511 696.155 432.921 696.236C433.33 696.316 433.698 696.54 433.958 696.867C434.232 697.232 434.357 697.688 434.31 698.143C434.263 698.597 434.046 699.017 433.702 699.319L432.599 700.325C432.625 700.322 432.651 700.324 432.675 700.333C432.699 700.342 432.721 700.357 432.738 700.376C432.758 700.399 432.771 700.428 432.774 700.458C433.149 700.367 433.544 700.401 433.897 700.556C434.251 700.71 434.544 700.976 434.731 701.313C434.921 701.672 434.984 702.084 434.91 702.482C434.837 702.881 434.631 703.243 434.326 703.51L424.999 712.002C423.694 713.19 422.064 713.961 420.318 714.217C418.572 714.472 416.789 714.201 415.199 713.437C413.827 712.778 412.766 711.61 412.242 710.182C411.718 708.753 411.771 707.177 412.391 705.787L413.143 704.094Z" fill="#E98862"/>
<g opacity="0.2">
<path d="M422.658 699.657C422.686 699.688 422.726 699.707 422.769 699.709C422.811 699.712 422.853 699.697 422.885 699.669L428.77 694.482C428.786 694.468 428.799 694.451 428.808 694.432C428.818 694.413 428.823 694.392 428.825 694.371C428.826 694.349 428.823 694.328 428.816 694.308C428.809 694.288 428.798 694.269 428.784 694.253C428.77 694.237 428.753 694.224 428.734 694.215C428.715 694.205 428.694 694.2 428.673 694.198C428.651 694.197 428.63 694.2 428.61 694.207C428.59 694.214 428.571 694.225 428.555 694.239L422.671 699.425C422.655 699.439 422.642 699.456 422.632 699.475C422.623 699.495 422.617 699.515 422.616 699.537C422.615 699.558 422.618 699.579 422.625 699.599C422.631 699.62 422.642 699.638 422.656 699.654L422.658 699.657Z" fill="#0C0C0C"/>
</g>
<g opacity="0.2">
<path d="M424.874 702.316C424.902 702.347 424.942 702.366 424.985 702.368C425.027 702.37 425.069 702.355 425.101 702.327L431.669 696.539C431.685 696.525 431.698 696.508 431.707 696.489C431.716 696.47 431.722 696.449 431.723 696.427C431.725 696.406 431.722 696.385 431.715 696.365C431.708 696.345 431.697 696.326 431.683 696.31C431.654 696.279 431.614 696.26 431.571 696.257C431.529 696.255 431.487 696.268 431.454 696.296L424.886 702.084C424.87 702.098 424.857 702.115 424.848 702.134C424.838 702.153 424.833 702.174 424.831 702.195C424.83 702.217 424.833 702.238 424.84 702.258C424.847 702.278 424.858 702.297 424.872 702.313L424.874 702.316Z" fill="#0C0C0C"/>
</g>
<g opacity="0.2">
<path d="M427.257 705.209C427.286 705.24 427.326 705.259 427.368 705.261C427.411 705.263 427.453 705.249 427.484 705.221L432.723 700.604C432.756 700.575 432.775 700.535 432.778 700.492C432.781 700.449 432.766 700.407 432.738 700.374C432.709 700.342 432.669 700.322 432.626 700.32C432.583 700.317 432.541 700.331 432.508 700.36L427.27 704.977C427.254 704.991 427.24 705.008 427.231 705.027C427.222 705.047 427.216 705.067 427.215 705.089C427.214 705.11 427.216 705.131 427.223 705.152C427.23 705.172 427.241 705.19 427.255 705.206L427.257 705.209Z" fill="#0C0C0C"/>
</g>
<path d="M363.285 669.668C362.082 663.623 361.53 659.59 361.594 655.335C363.289 652.363 362.843 648.951 362.458 647.477C364.119 648.383 364.814 648.483 366.377 648.483C366.377 648.483 363.574 637.236 354.049 634.209C352.296 633.528 347.825 632.666 341.887 633.481C336.837 634.174 324.387 637.95 322.607 651.966V651.974C322.548 652.439 321.352 665.353 318.969 671.549C315.765 679.879 311.268 682.467 311.382 692.077C311.528 704.438 334.254 706.084 347.963 705.158C361.672 704.231 369.321 699.726 369.421 690.817C369.531 680.836 365.692 681.763 363.285 669.668Z" fill="#0A0A0A"/>
<path d="M363.289 664.601C360.73 665.069 358.155 662.711 357.688 660.152C357.22 657.594 359.036 655.803 361.594 655.335L363.289 664.601Z" fill="#E98862"/>
<path d="M390.81 765.396C388.236 765.396 385.729 764.58 383.647 763.066C381.566 761.552 380.018 759.417 379.225 756.968L362.314 704.666L385.478 697.177L394.371 724.687L409.742 700.244L430.35 713.202L401.111 759.703C400.016 761.445 398.496 762.881 396.694 763.877C394.893 764.873 392.868 765.395 390.81 765.396Z" fill="#367CFF"/>
<path d="M377.163 750.955C377.153 750.956 377.143 750.955 377.133 750.953C377.091 750.945 377.054 750.921 377.029 750.885C377.005 750.85 376.996 750.806 377.003 750.764L382.752 719.557C382.76 719.515 382.784 719.477 382.82 719.453C382.855 719.429 382.899 719.419 382.941 719.427C382.984 719.435 383.021 719.459 383.046 719.495C383.07 719.53 383.079 719.574 383.072 719.616L377.323 750.823C377.316 750.86 377.296 750.894 377.267 750.918C377.238 750.942 377.201 750.955 377.163 750.955Z" fill="#0C0C0C"/>
<path d="M396.44 732.053C396.404 732.053 396.369 732.041 396.341 732.019C396.312 731.997 396.292 731.966 396.283 731.932L394.368 724.555C394.362 724.534 394.361 724.513 394.364 724.492C394.367 724.471 394.374 724.45 394.385 724.432C394.396 724.414 394.41 724.398 394.427 724.385C394.444 724.372 394.463 724.363 394.484 724.357C394.505 724.352 394.526 724.351 394.547 724.354C394.568 724.357 394.589 724.364 394.607 724.374C394.625 724.385 394.642 724.4 394.654 724.417C394.667 724.434 394.677 724.453 394.682 724.474L396.597 731.85C396.608 731.892 396.602 731.936 396.58 731.973C396.558 732.01 396.522 732.037 396.48 732.048C396.467 732.051 396.454 732.053 396.44 732.053Z" fill="#0C0C0C"/>
<defs>
<clipPath id="clip0_1_102">
<rect width="344" height="216.743" fill="white" transform="translate(283 570)"/>
</clipPath>
</defs>
</svg>
