<svg width="448" height="347" viewBox="0 0 448 347" fill="none" xmlns="http://www.w3.org/2000/svg">
<path d="M121.036 24.872L119.5 21.576C125.516 20.84 128.652 17.96 129.068 15.144H120.588V11.784H142.444V15.144H134.092C134.508 17.96 137.612 20.84 143.596 21.576L142.092 24.872C136.94 24.168 133.324 21.96 131.564 18.952C129.804 21.96 126.188 24.168 121.036 24.872ZM144.876 26.568V29.928H133.58V39.816H129.356V29.928H118.252V26.568H144.876ZM166.761 19.176V14.824H155.081V19.176H166.761ZM170.921 11.528V22.504H150.921V11.528H170.921ZM154.953 30.696V35.88H171.369V39.24H150.729V30.696H154.953ZM147.625 24.84H174.313V28.168H163.465V33.192H159.241V28.168H147.625V24.84Z" fill="#367CFF"/>
<path d="M190.407 13.8C186.151 13.8 184.135 14.408 184.135 15.72C184.135 17.096 186.151 17.672 190.407 17.672C194.695 17.672 196.711 17.096 196.711 15.72C196.711 14.408 194.695 13.8 190.407 13.8ZM190.407 20.744C183.687 20.744 179.751 18.984 179.751 15.72C179.751 12.488 183.687 10.696 190.407 10.696C197.159 10.696 201.095 12.488 201.095 15.72C201.095 18.984 197.159 20.744 190.407 20.744ZM184.359 34.696V36.36H201.255V39.528H180.167V31.784H196.327V30.216H180.135V27.112H200.487V34.696H184.359ZM177.095 22.152H203.719V25.448H177.095V22.152ZM223.294 30.28C225.278 30.28 226.718 28.936 226.718 26.664C226.718 24.456 225.278 23.08 223.294 23.08C221.31 23.08 219.838 24.456 219.838 26.696C219.838 28.936 221.31 30.28 223.294 30.28ZM223.294 19.656C227.55 19.656 230.718 22.568 230.718 26.664C230.718 30.824 227.55 33.736 223.294 33.736C219.006 33.736 215.806 30.824 215.806 26.664C215.806 22.568 219.006 19.656 223.294 19.656ZM225.374 10.792V14.632H231.774V17.992H214.622V14.632H221.15V10.792H225.374ZM242.142 21.8V25.288H237.918V39.752H233.694V10.28H237.918V21.8H242.142ZM255.644 12.552V16.84C255.644 22.312 257.98 27.688 262.972 29.832L260.572 33.256C257.18 31.72 254.908 28.808 253.596 25.192C252.284 29.128 249.884 32.296 246.364 33.96L243.836 30.472C248.988 28.264 251.42 22.568 251.42 16.84V12.552H255.644ZM264.412 10.248H268.636V39.816H264.412V10.248ZM278.841 24.136V29.768C282.393 29.736 285.561 29.576 289.241 29.032L289.561 32.488C285.209 33.16 281.465 33.256 277.049 33.256H274.681V20.808H283.609V16.104H274.617V12.744H287.769V24.136H278.841ZM294.073 10.248H298.329V39.816H294.073V27.912H289.177V24.52H294.073V19.912H289.241V16.52H294.073V10.248ZM314.071 23.72V15.944H308.471V23.72H314.071ZM323.511 18.28H318.199V21.256H323.511V18.28ZM318.199 24.616V27.048H304.311V12.648H318.199V14.92H323.511V10.28H327.735V31.752H323.511V24.616H318.199ZM312.503 35.88H328.375V39.24H308.279V29.736H312.503V35.88ZM12.128 71.584V65.952H6.368V71.584H12.128ZM16.288 62.656V74.912H2.24V62.656H16.288ZM9.344 85.216V87.136H25.44V90.4H5.152V82.176H20.416V80.416H5.12V77.152H24.576V85.216H9.344ZM24.576 66.944H28.448V70.4H24.576V76H20.352V61.28H24.576V66.944ZM44.1255 64.8C39.8695 64.8 37.8535 65.408 37.8535 66.72C37.8535 68.096 39.8695 68.672 44.1255 68.672C48.4135 68.672 50.4295 68.096 50.4295 66.72C50.4295 65.408 48.4135 64.8 44.1255 64.8ZM44.1255 71.744C37.4055 71.744 33.4695 69.984 33.4695 66.72C33.4695 63.488 37.4055 61.696 44.1255 61.696C50.8775 61.696 54.8135 63.488 54.8135 66.72C54.8135 69.984 50.8775 71.744 44.1255 71.744ZM38.0775 85.696V87.36H54.9735V90.528H33.8855V82.784H50.0455V81.216H33.8535V78.112H54.2055V85.696H38.0775ZM30.8135 73.152H57.4375V76.448H30.8135V73.152ZM88.917 76V70.88H83.765V67.52H88.917V61.248H93.141V76H88.917ZM70.549 62.368H83.445C83.445 70.048 78.901 74.72 70.261 76.768L68.853 73.472C75.285 72.032 78.357 69.216 78.901 65.728H70.549V62.368ZM77.973 87.136H93.749V90.464H73.749V82.144H88.917V80.448H73.717V77.12H93.141V85.28H77.973V87.136ZM98.9945 64.32H112.851C112.851 73.216 110.003 80.576 99.8265 85.664L97.5865 82.4C104.947 78.688 107.987 74.112 108.563 67.68H98.9945V64.32ZM118.355 61.28H122.579V90.752H118.355V76H112.659V72.576H118.355V61.28ZM132.496 64.064V80C136.208 79.904 140.208 79.584 144.336 78.784L144.752 82.24C139.856 83.264 135.12 83.52 130.832 83.52H128.272V64.064H132.496ZM154.576 72.384V75.872H150.448V90.688H146.224V61.248H150.448V72.384H154.576ZM182.632 64.512V67.84H165.288V64.512H171.88V61.408H176.104V64.512H182.632ZM170.792 74.528C170.792 76.096 172.072 76.928 173.992 76.928C175.912 76.928 177.192 76.096 177.192 74.528C177.192 73.024 175.912 72.192 173.992 72.192C172.072 72.192 170.792 73.024 170.792 74.528ZM176.104 79.872V82.208C178.376 82.08 180.648 81.92 182.76 81.6L183.08 84.64C176.872 85.856 170.248 85.856 165.256 85.856L164.743 82.432C166.856 82.432 169.288 82.432 171.88 82.368V79.872C168.808 79.232 166.792 77.248 166.792 74.528C166.792 71.232 169.768 68.992 173.992 68.992C178.216 68.992 181.192 71.232 181.192 74.528C181.192 77.248 179.176 79.232 176.104 79.872ZM192.168 73.28V76.768H188.488V90.752H184.264V61.28H188.488V73.28H192.168ZM205.477 74.72V66.944H199.877V74.72H205.477ZM214.917 69.28H209.605V72.256H214.917V69.28ZM209.605 75.616V78.048H195.717V63.648H209.605V65.92H214.917V61.28H219.141V82.752H214.917V75.616H209.605ZM203.909 86.88H219.781V90.24H199.685V80.736H203.909V86.88ZM237.251 64.8C232.995 64.8 230.979 65.408 230.979 66.72C230.979 68.096 232.995 68.672 237.251 68.672C241.539 68.672 243.555 68.096 243.555 66.72C243.555 65.408 241.539 64.8 237.251 64.8ZM237.251 71.744C230.531 71.744 226.595 69.984 226.595 66.72C226.595 63.488 230.531 61.696 237.251 61.696C244.003 61.696 247.939 63.488 247.939 66.72C247.939 69.984 244.003 71.744 237.251 71.744ZM231.203 85.696V87.36H248.099V90.528H227.011V82.784H243.171V81.216H226.979V78.112H247.331V85.696H231.203ZM223.939 73.152H250.563V76.448H223.939V73.152ZM267.162 75.232V80.736C271.13 80.704 274.362 80.544 277.978 79.968L278.362 83.36C274.106 84.032 270.33 84.128 265.37 84.128H262.97V63.744H276.602V67.136H267.162V71.936H275.61V75.232H267.162ZM282.138 61.248H286.362V90.816H282.138V75.04H277.082V71.648H282.138V61.248ZM302.552 69.44V70.464C302.552 74.72 304.888 79.52 309.72 81.6L307.48 84.832C304.152 83.456 301.816 80.64 300.504 77.28C299.192 80.832 296.824 83.84 293.464 85.344L291.192 82.112C296.024 79.936 298.328 74.944 298.328 70.464V69.44H292.184V66.08H298.328V61.984H302.552V66.08H308.568V69.44H302.552ZM311.288 61.28H315.512V90.752H311.288V61.28ZM327.573 80.896C329.173 80.896 330.325 79.616 330.325 77.408C330.325 75.2 329.173 73.888 327.573 73.888C325.973 73.888 324.821 75.2 324.821 77.408C324.821 79.616 325.973 80.896 327.573 80.896ZM327.573 70.368C331.349 70.368 334.037 73.28 334.037 77.408C334.037 81.504 331.349 84.416 327.573 84.416C323.797 84.416 321.109 81.504 321.109 77.408C321.109 73.28 323.797 70.368 327.573 70.368ZM329.653 62.08V65.728H334.549V69.088H320.469V65.728H325.493V62.08H329.653ZM341.781 61.248H345.781V90.72H341.781V76.672H339.541V89.504H335.605V61.824H339.541V73.28H341.781V61.248ZM352.755 75.872L351.219 72.576C357.235 71.84 360.371 68.96 360.787 66.144H352.307V62.784H374.163V66.144H365.811C366.227 68.96 369.331 71.84 375.315 72.576L373.811 75.872C368.659 75.168 365.043 72.96 363.283 69.952C361.523 72.96 357.907 75.168 352.755 75.872ZM376.595 77.568V80.928H365.299V90.816H361.075V80.928H349.971V77.568H376.595ZM388.784 63.84V68.64C388.784 73.408 390.064 78.304 394.064 80.96L391.76 84.224C389.264 82.688 387.696 80.192 386.768 77.216C385.744 80.48 384.016 83.296 381.36 84.896L378.832 81.728C383.152 79.104 384.72 73.824 384.72 68.8V63.84H388.784ZM394.672 71.232V61.76H398.608V89.44H394.672V74.656H390.96V71.232H394.672ZM400.656 61.28H404.656V90.752H400.656V61.28ZM418.894 78.272V83.904H425.39V78.272C424.366 78.464 423.278 78.56 422.126 78.56C420.974 78.56 419.918 78.464 418.894 78.272ZM422.126 66.048C418.03 66.048 415.31 67.712 415.31 70.656C415.31 73.568 418.03 75.264 422.126 75.264C426.222 75.264 428.974 73.568 428.974 70.656C428.974 67.712 426.222 66.048 422.126 66.048ZM429.582 83.904H435.502V87.328H408.814V83.904H414.702V76.704C412.462 75.328 411.118 73.216 411.15 70.656C411.15 65.824 415.79 62.72 422.126 62.72C428.494 62.72 433.134 65.824 433.134 70.656C433.134 73.216 431.79 75.328 429.582 76.704V83.904ZM442.438 88.3906C440.844 88.3906 439.688 87.2188 439.688 85.6719C439.688 84.125 440.844 82.9688 442.438 82.9688C444.047 82.9688 445.188 84.125 445.188 85.6719C445.188 87.2188 444.047 88.3906 442.438 88.3906Z" fill="black"/>
<g clip-path="url(#clip0_2_3942)">
<path d="M192.31 234.135C192.182 234.135 192.055 234.11 191.937 234.061C191.819 234.012 191.712 233.94 191.622 233.85L187.077 229.305C186.9 229.122 186.802 228.876 186.804 228.62C186.806 228.365 186.909 228.121 187.089 227.94C187.27 227.76 187.514 227.657 187.769 227.655C188.025 227.653 188.271 227.751 188.454 227.928L192.998 232.473C193.135 232.609 193.227 232.782 193.265 232.971C193.302 233.16 193.283 233.356 193.209 233.534C193.136 233.712 193.011 233.864 192.851 233.971C192.691 234.078 192.503 234.135 192.31 234.135Z" fill="#0CBC8B"/>
<path d="M187.765 234.135C187.573 234.135 187.385 234.078 187.224 233.971C187.064 233.864 186.94 233.712 186.866 233.534C186.792 233.356 186.773 233.16 186.81 232.971C186.848 232.782 186.941 232.609 187.077 232.473L191.621 227.928C191.805 227.751 192.051 227.653 192.306 227.655C192.561 227.657 192.806 227.76 192.986 227.94C193.167 228.121 193.269 228.365 193.271 228.62C193.274 228.876 193.175 229.122 192.998 229.305L188.454 233.85C188.363 233.94 188.256 234.012 188.138 234.061C188.02 234.11 187.893 234.135 187.765 234.135Z" fill="#0CBC8B"/>
<path d="M322.421 277.568L321.124 280.544L329.106 284.024L330.403 281.048L322.421 277.568Z" fill="#0CBC8B"/>
<path d="M324.94 197.797L317.432 202.209L319.077 205.008L326.585 200.596L324.94 197.797Z" fill="#0CBC8B"/>
<path d="M199.828 205.353L198.822 208.439L207.103 211.137L208.108 208.051L199.828 205.353Z" fill="#0CBC8B"/>
<path d="M209.521 257.115L202.389 262.105L204.249 264.764L211.381 259.774L209.521 257.115Z" fill="#0CBC8B"/>
<path d="M340.336 245.677L340.038 248.909L348.52 249.691L348.818 246.459L340.336 245.677Z" fill="#0CBC8B"/>
<path d="M348.974 222.427C348.846 222.428 348.719 222.402 348.601 222.353C348.483 222.305 348.376 222.233 348.285 222.142L343.741 217.598C343.648 217.508 343.574 217.401 343.523 217.282C343.472 217.163 343.445 217.035 343.444 216.906C343.443 216.777 343.467 216.648 343.516 216.529C343.565 216.409 343.638 216.3 343.729 216.209C343.82 216.117 343.929 216.045 344.049 215.996C344.169 215.947 344.297 215.923 344.426 215.924C344.555 215.925 344.683 215.952 344.802 216.003C344.921 216.054 345.028 216.128 345.118 216.221L349.662 220.765C349.798 220.901 349.891 221.075 349.929 221.264C349.966 221.453 349.947 221.648 349.873 221.826C349.8 222.004 349.675 222.156 349.515 222.263C349.355 222.37 349.166 222.427 348.974 222.427Z" fill="#0CBC8B"/>
<path d="M344.43 222.427C344.237 222.427 344.049 222.37 343.889 222.263C343.729 222.156 343.604 222.004 343.53 221.826C343.457 221.648 343.437 221.453 343.475 221.264C343.513 221.075 343.605 220.901 343.741 220.765L348.286 216.221C348.375 216.128 348.483 216.054 348.602 216.003C348.721 215.952 348.848 215.925 348.978 215.924C349.107 215.923 349.235 215.947 349.355 215.996C349.474 216.045 349.583 216.117 349.675 216.209C349.766 216.3 349.838 216.409 349.887 216.529C349.936 216.648 349.961 216.777 349.96 216.906C349.959 217.035 349.932 217.163 349.881 217.282C349.83 217.401 349.756 217.508 349.663 217.598L345.118 222.142C345.028 222.233 344.921 222.304 344.803 222.353C344.684 222.402 344.558 222.427 344.43 222.427Z" fill="#0CBC8B"/>
<path d="M100.358 346.593H380.095C380.169 346.593 380.24 346.555 380.292 346.489C380.345 346.423 380.374 346.333 380.374 346.239C380.374 346.145 380.345 346.055 380.292 345.988C380.24 345.922 380.169 345.885 380.095 345.885H100.358C100.284 345.885 100.213 345.922 100.16 345.988C100.108 346.055 100.078 346.145 100.078 346.239C100.078 346.333 100.108 346.423 100.16 346.489C100.213 346.555 100.284 346.593 100.358 346.593Z" fill="#292A2E"/>
</g>
<path opacity="0.7" d="M269.247 280.47C290.528 280.47 307.78 262.859 307.78 241.135C307.78 219.411 290.528 201.8 269.247 201.8C247.966 201.8 230.714 219.411 230.714 241.135C230.714 262.859 247.966 280.47 269.247 280.47Z" fill="#367CFF"/>
<path d="M269.248 216.478H269.247C264.411 216.478 260.49 220.399 260.49 225.235V242.963C260.49 247.8 264.411 251.72 269.247 251.72H269.248C274.084 251.72 278.005 247.8 278.005 242.963V225.235C278.005 220.399 274.084 216.478 269.248 216.478Z" fill="white"/>
<path d="M283.588 243.379V238.718C283.591 238.598 283.57 238.48 283.526 238.369C283.482 238.258 283.417 238.156 283.333 238.071C283.25 237.986 283.15 237.918 283.04 237.871C282.93 237.825 282.812 237.801 282.693 237.801C282.573 237.801 282.455 237.825 282.345 237.871C282.235 237.918 282.135 237.986 282.052 238.071C281.969 238.156 281.903 238.258 281.859 238.369C281.816 238.48 281.794 238.598 281.797 238.718V243.379C281.797 250.443 276.167 256.191 269.247 256.191C262.326 256.191 256.696 250.443 256.696 243.379V238.718C256.696 238.48 256.602 238.253 256.434 238.085C256.266 237.917 256.038 237.823 255.801 237.823C255.563 237.823 255.336 237.917 255.168 238.085C255 238.253 254.906 238.48 254.906 238.718V243.379C254.906 251.144 260.86 257.513 268.352 257.987V264.801H259.259C259.02 264.807 258.793 264.906 258.626 265.076C258.459 265.247 258.366 265.477 258.366 265.715C258.366 265.954 258.459 266.183 258.626 266.354C258.793 266.525 259.02 266.624 259.259 266.629H279.235C279.474 266.624 279.701 266.525 279.868 266.354C280.035 266.183 280.128 265.954 280.128 265.715C280.128 265.477 280.035 265.247 279.868 265.076C279.701 264.906 279.474 264.807 279.235 264.801H270.143V257.987C277.634 257.513 283.588 251.143 283.588 243.379Z" fill="white"/>
<path opacity="0.3" d="M269.247 292.436C241.536 292.436 218.992 269.422 218.992 241.135C218.992 212.847 241.536 189.833 269.247 189.833C296.958 189.833 319.502 212.847 319.502 241.135C319.502 269.423 296.958 292.436 269.247 292.436ZM269.247 190.413C241.85 190.413 219.56 213.167 219.56 241.135C219.56 269.103 241.85 291.856 269.247 291.856C296.645 291.856 318.934 269.102 318.934 241.135C318.934 213.167 296.645 190.413 269.247 190.413Z" fill="#367CFF"/>
<path d="M105.17 327.239C103.21 327.238 101.278 326.764 99.5394 325.857C97.8011 324.949 96.3078 323.635 95.1865 322.027C94.0653 320.418 93.3492 318.562 93.0994 316.617C92.8496 314.672 93.0734 312.696 93.7517 310.856C94.4402 308.988 112.099 263.403 115.175 255.481L136.426 267.848C134.697 272.303 128.435 289.188 123.404 302.79L131.762 301.882L134.393 324.136L106.489 327.169C106.051 327.216 105.611 327.239 105.17 327.239Z" fill="#367CFF"/>
<path d="M119.758 327.943L116.046 346.418H188.137L183.984 327.592L119.758 327.943Z" fill="#262626"/>
<path d="M174.68 246.002C174.605 245.992 172.56 253.688 156.6 252.49C145.551 251.662 142.857 244.142 142.604 244.142C143.795 243.889 145.73 243.626 146.259 243.343C147.998 242.408 149.266 241.27 149.904 238.828C150.403 236.918 150.657 229.566 150.657 225.877L167.659 229.698C167.422 233.859 165.763 243.506 171.577 245.213C172.544 245.495 173.586 245.755 174.68 246.002Z" fill="#E98862"/>
<path d="M167.071 237.878C160.369 238.408 151.759 235.577 150.123 226.635L148.648 218.566C147.012 209.624 150.383 201.516 158.803 199.976C167.223 198.436 174.842 204.534 176.477 213.477L177.131 217.049C177.757 220.48 179.029 236.935 167.071 237.878Z" fill="#E98862"/>
<path d="M135.345 245.38C129.322 245.827 123.18 246.479 118.748 250.582C113.41 255.523 112.443 261.599 115.848 278.32C118.778 292.708 117.616 298.995 119.576 325.543C119.634 326.326 119.758 327.943 119.758 327.943L184.188 327.836C184.188 327.836 190.226 292.613 193.559 276.367C196.094 264.016 202.752 249.022 174.68 246.001C174.606 245.993 152.091 244.137 135.345 245.38Z" fill="#367CFF"/>
<path d="M119.757 328.106C119.715 328.106 119.675 328.09 119.645 328.06C119.614 328.031 119.597 327.992 119.595 327.95L117.576 275.537C117.574 275.494 117.59 275.452 117.619 275.42C117.648 275.389 117.689 275.37 117.732 275.368C117.753 275.367 117.775 275.369 117.795 275.377C117.816 275.384 117.835 275.395 117.85 275.409C117.866 275.424 117.879 275.442 117.887 275.462C117.896 275.481 117.9 275.503 117.9 275.524L119.92 327.937C119.921 327.98 119.906 328.022 119.876 328.054C119.847 328.085 119.807 328.104 119.764 328.105L119.757 328.106Z" fill="#0C0C0C"/>
<path d="M223.143 264.094L227.67 253.939C227.77 253.716 227.914 253.516 228.095 253.352C228.276 253.188 228.49 253.064 228.721 252.987C228.953 252.909 229.198 252.881 229.442 252.904C229.685 252.927 229.921 253.001 230.134 253.12C230.521 253.351 230.809 253.719 230.94 254.151C231.072 254.583 231.038 255.048 230.846 255.457L229.876 257.634L236.071 252.188C236.749 251.571 237.976 251.246 238.619 252.053C238.886 252.347 239.046 252.723 239.072 253.12C239.099 253.517 238.99 253.911 238.763 254.237C238.771 254.242 238.778 254.248 238.784 254.254C238.788 254.26 238.791 254.266 238.794 254.272L239.84 253.32C240.034 253.144 240.264 253.013 240.515 252.937C240.766 252.861 241.03 252.842 241.289 252.882C241.548 252.921 241.795 253.018 242.012 253.165C242.229 253.311 242.41 253.505 242.543 253.731C242.745 254.091 242.817 254.509 242.747 254.916C242.677 255.323 242.47 255.693 242.16 255.965L241.715 256.37C241.721 256.389 241.723 256.408 241.722 256.427C242.086 256.223 242.511 256.155 242.921 256.236C243.33 256.316 243.698 256.54 243.958 256.867C244.232 257.232 244.357 257.688 244.31 258.143C244.263 258.597 244.046 259.017 243.702 259.319L242.599 260.325C242.625 260.322 242.651 260.324 242.675 260.333C242.699 260.342 242.721 260.357 242.738 260.376C242.758 260.399 242.771 260.428 242.774 260.458C243.149 260.367 243.544 260.401 243.897 260.556C244.251 260.71 244.544 260.976 244.731 261.313C244.921 261.672 244.984 262.084 244.91 262.482C244.837 262.881 244.631 263.243 244.326 263.51L234.999 272.002C233.694 273.19 232.064 273.961 230.318 274.217C228.572 274.472 226.789 274.201 225.199 273.437C223.827 272.778 222.766 271.61 222.242 270.182C221.718 268.753 221.771 267.177 222.391 265.787L223.143 264.094Z" fill="#E98862"/>
<g opacity="0.2">
<path d="M232.658 259.657C232.686 259.688 232.726 259.707 232.769 259.709C232.811 259.712 232.853 259.697 232.885 259.669L238.77 254.482C238.786 254.468 238.799 254.451 238.808 254.432C238.818 254.413 238.823 254.392 238.825 254.371C238.826 254.349 238.823 254.328 238.816 254.308C238.809 254.288 238.798 254.269 238.784 254.253C238.77 254.237 238.753 254.224 238.734 254.215C238.715 254.205 238.694 254.2 238.673 254.198C238.651 254.197 238.63 254.2 238.61 254.207C238.59 254.214 238.571 254.225 238.555 254.239L232.671 259.425C232.655 259.439 232.642 259.456 232.632 259.475C232.623 259.495 232.617 259.515 232.616 259.537C232.615 259.558 232.618 259.579 232.625 259.599C232.631 259.62 232.642 259.638 232.656 259.654L232.658 259.657Z" fill="#0C0C0C"/>
</g>
<g opacity="0.2">
<path d="M234.874 262.316C234.902 262.347 234.942 262.366 234.985 262.368C235.027 262.37 235.069 262.355 235.101 262.327L241.669 256.539C241.685 256.525 241.698 256.508 241.707 256.489C241.716 256.47 241.722 256.449 241.723 256.427C241.725 256.406 241.722 256.385 241.715 256.365C241.708 256.345 241.697 256.326 241.683 256.31C241.654 256.279 241.614 256.26 241.571 256.257C241.529 256.255 241.487 256.268 241.454 256.296L234.886 262.084C234.87 262.098 234.857 262.115 234.848 262.134C234.838 262.153 234.833 262.174 234.831 262.195C234.83 262.217 234.833 262.238 234.84 262.258C234.847 262.278 234.858 262.297 234.872 262.313L234.874 262.316Z" fill="#0C0C0C"/>
</g>
<g opacity="0.2">
<path d="M237.257 265.209C237.286 265.24 237.326 265.259 237.368 265.261C237.411 265.263 237.453 265.249 237.484 265.221L242.723 260.604C242.756 260.575 242.775 260.535 242.778 260.492C242.781 260.449 242.766 260.407 242.738 260.374C242.709 260.342 242.669 260.322 242.626 260.32C242.583 260.317 242.541 260.331 242.508 260.36L237.27 264.977C237.254 264.991 237.24 265.008 237.231 265.027C237.222 265.047 237.216 265.067 237.215 265.089C237.214 265.11 237.216 265.131 237.223 265.152C237.23 265.172 237.241 265.19 237.255 265.206L237.257 265.209Z" fill="#0C0C0C"/>
</g>
<path d="M173.285 229.668C172.082 223.623 171.53 219.59 171.594 215.335C173.289 212.363 172.843 208.951 172.458 207.477C174.119 208.383 174.814 208.483 176.377 208.483C176.377 208.483 173.574 197.236 164.049 194.209C162.296 193.528 157.825 192.666 151.887 193.481C146.837 194.174 134.387 197.95 132.607 211.966V211.974C132.548 212.439 131.352 225.353 128.969 231.549C125.765 239.879 121.268 242.467 121.382 252.077C121.528 264.438 144.254 266.084 157.963 265.158C171.672 264.231 179.321 259.726 179.421 250.817C179.531 240.836 175.692 241.763 173.285 229.668Z" fill="#0A0A0A"/>
<path d="M173.289 224.601C170.73 225.069 168.155 222.711 167.688 220.152C167.22 217.594 169.036 215.803 171.594 215.335L173.289 224.601Z" fill="#E98862"/>
<path d="M200.81 325.396C198.236 325.396 195.729 324.58 193.647 323.066C191.566 321.552 190.018 319.417 189.225 316.968L172.314 264.666L195.478 257.177L204.371 284.687L219.742 260.244L240.35 273.202L211.111 319.703C210.016 321.445 208.496 322.881 206.694 323.877C204.893 324.873 202.868 325.395 200.81 325.396Z" fill="#367CFF"/>
<path d="M187.163 310.955C187.153 310.956 187.143 310.955 187.133 310.953C187.091 310.945 187.054 310.921 187.029 310.885C187.005 310.85 186.996 310.806 187.003 310.764L192.752 279.557C192.76 279.515 192.784 279.477 192.82 279.453C192.855 279.429 192.899 279.419 192.941 279.427C192.984 279.435 193.021 279.459 193.046 279.495C193.07 279.53 193.079 279.574 193.072 279.616L187.323 310.823C187.316 310.86 187.296 310.894 187.267 310.918C187.238 310.942 187.201 310.955 187.163 310.955Z" fill="#0C0C0C"/>
<path d="M206.44 292.053C206.404 292.053 206.369 292.041 206.341 292.019C206.312 291.997 206.292 291.966 206.283 291.932L204.368 284.555C204.362 284.534 204.361 284.513 204.364 284.492C204.367 284.471 204.374 284.45 204.385 284.432C204.396 284.414 204.41 284.398 204.427 284.385C204.444 284.372 204.463 284.363 204.484 284.357C204.505 284.352 204.526 284.351 204.547 284.354C204.568 284.357 204.589 284.364 204.607 284.374C204.625 284.385 204.642 284.4 204.654 284.417C204.667 284.434 204.677 284.453 204.682 284.474L206.597 291.85C206.608 291.892 206.602 291.936 206.58 291.973C206.558 292.01 206.522 292.037 206.48 292.048C206.467 292.051 206.454 292.053 206.44 292.053Z" fill="#0C0C0C"/>
<defs>
<clipPath id="clip0_2_3942">
<rect width="344" height="216.743" fill="white" transform="translate(93 130)"/>
</clipPath>
</defs>
</svg>
