<svg width="229" height="30" viewBox="0 0 229 30" fill="none" xmlns="http://www.w3.org/2000/svg">
<path d="M7.86188 19.544C10.0379 19.544 11.4779 17.208 11.4779 12.824C11.4779 8.472 10.0379 6.136 7.86188 6.136C5.71788 6.136 4.27788 8.472 4.27788 12.824C4.27788 17.208 5.71788 19.544 7.86188 19.544ZM20.3099 0.247999H24.5339V29.816H20.3099V14.296H15.4139C14.9659 19.928 11.9579 23.384 7.86188 23.384C3.47788 23.384 0.245875 19.32 0.245875 12.824C0.245875 6.36 3.47788 2.328 7.86188 2.328C11.8299 2.328 14.8059 5.56 15.3819 10.872H20.3099V0.247999ZM35.2194 6.328V19.288C40.3714 19.256 43.6674 19.096 47.2194 18.424L47.6034 21.912C43.6034 22.68 39.8594 22.808 33.5874 22.808H30.9954V2.904H45.2354V6.328H35.2194ZM49.4274 0.279999H53.6514V29.848H49.4274V0.279999ZM69.7449 2.552V6.808C69.7449 12.376 71.8889 17.784 76.7529 19.96L74.2569 23.32C71.0249 21.752 68.8809 18.872 67.6649 15.32C66.3849 19.096 64.1769 22.168 60.8809 23.832L58.2569 20.44C63.2489 18.136 65.4889 12.408 65.4889 6.808V2.552H69.7449ZM79.1849 0.247999H83.4089V29.816H79.1849V12.888H73.5209V9.496H79.1849V0.247999ZM120.2 13.88V17.24H99.4644V2.712H119.976V6.136H103.688V13.88H120.2ZM96.3604 22.776H123.048V26.232H96.3604V22.776ZM137.222 2.552V6.84C137.222 12.312 139.558 17.688 144.55 19.832L142.15 23.256C138.758 21.72 136.486 18.808 135.174 15.192C133.862 19.128 131.462 22.296 127.942 23.96L125.414 20.472C130.566 18.264 132.998 12.568 132.998 6.84V2.552H137.222ZM145.99 0.247999H150.214V29.816H145.99V0.247999ZM160.355 3.064V19C164.067 18.904 168.067 18.584 172.195 17.784L172.611 21.24C167.715 22.264 162.979 22.52 158.691 22.52H156.131V3.064H160.355ZM182.435 11.384V14.872H178.307V29.688H174.083V0.247999H178.307V11.384H182.435ZM194.753 17.272V22.904H201.249V17.272C200.225 17.464 199.137 17.56 197.985 17.56C196.833 17.56 195.777 17.464 194.753 17.272ZM197.985 5.048C193.889 5.048 191.169 6.712 191.169 9.656C191.169 12.568 193.889 14.264 197.985 14.264C202.081 14.264 204.833 12.568 204.833 9.656C204.833 6.712 202.081 5.048 197.985 5.048ZM205.441 22.904H211.361V26.328H184.673V22.904H190.561V15.704C188.321 14.328 186.977 12.216 187.009 9.656C187.009 4.824 191.649 1.72 197.985 1.72C204.353 1.72 208.993 4.824 208.993 9.656C208.993 12.216 207.649 14.328 205.441 15.704V22.904ZM218.828 19.9219L218.797 19.0156C218.594 16.5625 219.453 15.1562 221.609 13.8906C223.625 12.6875 224.234 11.9219 224.234 10.4531V10.4219C224.234 8.95312 223.047 7.875 221.266 7.875C219.469 7.875 218.281 9.01562 218.203 10.7812H218.172L213.953 10.7969V10.7656C214.031 6.9375 216.75 4.25 221.547 4.25C226.016 4.25 228.969 6.73438 228.969 10.2812V10.3125C228.969 12.6562 227.828 14.2969 225.625 15.5938C223.547 16.7969 222.969 17.5625 222.969 19.0938V19.9219H218.828ZM221.062 27.4531C219.312 27.4531 218.219 26.4531 218.219 24.8438C218.219 23.2188 219.312 22.2188 221.062 22.2188C222.812 22.2188 223.891 23.2188 223.891 24.8438C223.891 26.4531 222.812 27.4531 221.062 27.4531Z" fill="black"/>
</svg>
